<?xml version="1.0" encoding="UTF-8"?>
<svg version="1.1" xmlns="http://www.w3.org/2000/svg" width="512" height="512">
<path d="M0 0 C1.26228172 -0.01248528 1.26228172 -0.01248528 2.55006409 -0.02522278 C5.32159103 -0.04924123 8.09288209 -0.058086 10.86450195 -0.06469727 C12.80255703 -0.07367156 14.74061144 -0.08279355 16.67866516 -0.09205627 C20.7395699 -0.10852795 24.80039238 -0.11624276 28.86132812 -0.11914062 C34.04168185 -0.12451475 39.22125225 -0.16216272 44.40138531 -0.20788479 C48.40536758 -0.23776668 52.40916402 -0.24486664 56.41324806 -0.24586678 C58.32166941 -0.25004894 60.23009235 -0.26240189 62.13840294 -0.28338432 C72.71370046 -0.390385 81.07354656 -0.23936066 90.4152832 5.30639648 C92.11698608 6.11497344 93.8259974 6.90847642 95.54418945 7.68139648 C96.90374756 8.30208008 96.90374756 8.30208008 98.29077148 8.93530273 C101.31083537 10.26056284 104.3514784 11.51017895 107.41000366 12.74291992 C110.32662891 13.92704477 113.22606715 15.15031821 116.12451172 16.37817383 C117.61571423 16.99935844 119.11399865 17.60379625 120.61865234 18.19165039 C133.19782734 23.13166685 133.19782734 23.13166685 136.23168945 28.55102539 C137.2171148 31.80429768 137.83608532 34.96228649 138.4152832 38.30639648 C139.41484645 40.71254526 139.41484645 40.71254526 140.5402832 42.68139648 C142.41362762 46.14782119 143.4602657 49.48632647 144.4152832 53.30639648 C145.0340332 53.45077148 145.6527832 53.59514648 146.2902832 53.74389648 C148.4152832 54.30639648 148.4152832 54.30639648 150.4152832 55.30639648 C150.4152832 55.96639648 150.4152832 56.62639648 150.4152832 57.30639648 C151.0752832 57.30639648 151.7352832 57.30639648 152.4152832 57.30639648 C152.4152832 57.96639648 152.4152832 58.62639648 152.4152832 59.30639648 C153.1990332 59.61577148 153.9827832 59.92514648 154.7902832 60.24389648 C157.4152832 61.30639648 157.4152832 61.30639648 159.4152832 62.30639648 C159.4152832 63.62639648 159.4152832 64.94639648 159.4152832 66.30639648 C163.0452832 66.96639648 166.6752832 67.62639648 170.4152832 68.30639648 C170.7452832 69.62639648 171.0752832 70.94639648 171.4152832 72.30639648 C170.7552832 73.29639648 170.0952832 74.28639648 169.4152832 75.30639648 C170.4052832 75.63639648 171.3952832 75.96639648 172.4152832 76.30639648 C172.4152832 73.00639648 172.4152832 69.70639648 172.4152832 66.30639648 C170.7652832 66.30639648 169.1152832 66.30639648 167.4152832 66.30639648 C166.7902832 64.49389648 166.7902832 64.49389648 166.4152832 62.30639648 C167.0752832 61.31639648 167.7352832 60.32639648 168.4152832 59.30639648 C170.5090332 58.97827148 170.5090332 58.97827148 172.9152832 59.05639648 C174.10637695 59.07959961 174.10637695 59.07959961 175.3215332 59.10327148 C177.4152832 59.30639648 177.4152832 59.30639648 179.4152832 60.30639648 C179.4152832 60.96639648 179.4152832 61.62639648 179.4152832 62.30639648 C180.0752832 62.30639648 180.7352832 62.30639648 181.4152832 62.30639648 C181.4152832 62.96639648 181.4152832 63.62639648 181.4152832 64.30639648 C182.4052832 63.64639648 183.3952832 62.98639648 184.4152832 62.30639648 C184.5184082 61.33702148 184.6215332 60.36764648 184.7277832 59.36889648 C185.4152832 56.30639648 185.4152832 56.30639648 188.3527832 54.43139648 C191.4152832 53.30639648 191.4152832 53.30639648 193.4152832 53.30639648 C193.4152832 52.64639648 193.4152832 51.98639648 193.4152832 51.30639648 C189.27953493 51.20792629 185.47896999 51.53236091 181.4152832 52.30639648 C181.18454102 51.61932617 180.95379883 50.93225586 180.71606445 50.22436523 C178.7447234 44.48424865 178.7447234 44.48424865 174.6652832 40.18139648 C173.9227832 39.89264648 173.1802832 39.60389648 172.4152832 39.30639648 C172.4777832 36.99389648 172.4777832 36.99389648 173.4152832 34.30639648 C178.70719592 31.04117375 184.27397182 30.21647091 190.4152832 31.30639648 C193.1652832 33.30639648 193.1652832 33.30639648 195.4152832 36.30639648 C195.82520508 36.8181543 196.23512695 37.32991211 196.6574707 37.85717773 C204.03345539 47.25426557 210.56413984 57.43852777 217.1340332 67.40795898 C218.47219565 69.39072408 219.8740874 71.31629664 221.2902832 73.24389648 C223.4152832 76.30639648 223.4152832 76.30639648 223.4152832 78.30639648 C224.0752832 78.30639648 224.7352832 78.30639648 225.4152832 78.30639648 C232.67747765 86.00031374 236.02884083 94.30329959 236.53637695 104.81420898 C235.97544431 115.20051011 228.94405223 122.29002227 222.1262207 129.43530273 C219.86637047 131.82865997 217.75534353 134.26711505 215.6652832 136.80639648 C212.61852026 140.33770486 209.59349869 142.25825164 205.4152832 144.30639648 C204.7552832 144.63639648 204.0952832 144.96639648 203.4152832 145.30639648 C201.45979064 145.42897109 199.49957702 145.48192036 197.5402832 145.49389648 C196.49098633 145.50807617 195.44168945 145.52225586 194.3605957 145.53686523 C191.47981249 145.31144586 189.85288112 144.79603966 187.4152832 143.30639648 C187.9102832 144.35827148 188.4052832 145.41014648 188.9152832 146.49389648 C190.22058164 149.57067137 190.9783152 151.92820449 190.4152832 155.30639648 C188.76489288 158.19457954 187.13715979 158.38586032 183.9152832 159.30639648 C178.14999068 159.80819046 173.08697646 157.54936801 168.4152832 154.30639648 C167.01172131 152.23982607 166.13312293 150.29429827 165.2277832 147.97436523 C164.51654642 146.037353 164.51654642 146.037353 162.0402832 145.36889648 C161.1740332 145.34827148 160.3077832 145.32764648 159.4152832 145.30639648 C155.45800475 144.72929338 152.08069223 143.9234887 148.4152832 142.30639648 C148.4152832 138.30639648 148.4152832 138.30639648 149.4152832 136.30639648 C144.93074186 135.29966271 141.30415206 134.90433063 137.05200195 136.95874023 C132.98799443 140.30499941 131.13523552 146.01626245 129.5949707 150.91577148 C128.06448165 154.01729235 126.30722126 154.93849058 123.3527832 156.68139648 C119.14737949 159.28449955 119.14737949 159.28449955 117.6027832 163.86889648 C117.5409082 165.00327148 117.4790332 166.13764648 117.4152832 167.30639648 C115.51323499 170.7331635 113.42378218 172.99264125 109.6027832 174.18139648 C108.8809082 174.22264648 108.1590332 174.26389648 107.4152832 174.30639648 C107.0852832 173.31639648 106.7552832 172.32639648 106.4152832 171.30639648 C106.7452832 170.64639648 107.0752832 169.98639648 107.4152832 169.30639648 C106.7552832 169.30639648 106.0952832 169.30639648 105.4152832 169.30639648 C105.1471582 169.86327148 104.8790332 170.42014648 104.6027832 170.99389648 C102.07553256 175.91538458 99.33323768 179.38844201 95.4152832 183.30639648 C94.94928711 184.27899414 94.94928711 184.27899414 94.47387695 185.27124023 C93.28092651 187.56469847 92.04544259 188.69526405 90.0402832 190.30639648 C87.99259798 191.97565939 86.23585409 193.50897774 84.4777832 195.49389648 C81.44726554 198.15707867 78.23074754 199.03457504 74.4152832 200.30639648 C75.0752832 200.63639648 75.7352832 200.96639648 76.4152832 201.30639648 C77.4052832 200.97639648 78.3952832 200.64639648 79.4152832 200.30639648 C80.86028521 200.18326652 82.30951068 200.1058688 83.7590332 200.06030273 C84.59305664 200.02743164 85.42708008 199.99456055 86.28637695 199.96069336 C88.03884923 199.89950005 89.79146207 199.84220753 91.54418945 199.78881836 C92.37821289 199.7546582 93.21223633 199.72049805 94.0715332 199.68530273 C94.83272461 199.66024658 95.59391602 199.63519043 96.37817383 199.609375 C98.72406667 199.40839593 98.72406667 199.40839593 101.4152832 197.30639648 C104.6027832 197.18139648 104.6027832 197.18139648 107.4152832 197.30639648 C106.78973254 203.81212336 106.78973254 203.81212336 104.8527832 206.36889648 C102.87257514 209.03787257 103.19471053 211.07133065 103.4152832 214.30639648 C104.81066574 214.36111737 106.20669217 214.39951186 107.6027832 214.43139648 C108.38008789 214.45459961 109.15739258 214.47780273 109.95825195 214.50170898 C114.55825934 214.13604862 117.99907611 212.07740652 121.7277832 209.49389648 C124.67724317 207.46860064 127.64611469 205.56070105 130.7277832 203.74389648 C133.41830862 202.10618536 134.60262292 201.06553114 136.6027832 198.49389648 C138.4152832 196.30639648 138.4152832 196.30639648 140.7980957 195.89624023 C143.4152832 196.30639648 143.4152832 196.30639648 145.36450195 198.20483398 C145.93813477 199.02209961 146.51176758 199.83936523 147.1027832 200.68139648 C149.57513539 204.148294 149.57513539 204.148294 152.4152832 207.30639648 C152.4152832 208.29639648 152.4152832 209.28639648 152.4152832 210.30639648 C157.7009496 210.79808638 159.4097492 209.57406896 163.4152832 206.30639648 C166.46719698 206.48079156 167.22786836 207.11898164 169.4152832 209.30639648 C169.74480265 216.11646513 169.74480265 216.11646513 168.9230957 219.08374023 C167.07802537 227.15947115 167.37140104 236.62789057 171.2668457 243.93530273 C175.50657912 252.68876594 176.91087884 262.79443673 177.55639648 272.40795898 C177.93577783 276.88703681 179.14023251 279.6933411 181.51098633 283.46704102 C183.19153332 286.88530263 183.0946301 290.49607075 183.1652832 294.24389648 C183.20975586 295.41275391 183.20975586 295.41275391 183.25512695 296.60522461 C183.32506022 298.50507825 183.37252371 300.40573708 183.4152832 302.30639648 C184.0752832 302.30639648 184.7352832 302.30639648 185.4152832 302.30639648 C185.83938477 303.36858398 186.26348633 304.43077148 186.70043945 305.52514648 C189.65482918 312.71600355 192.30746354 319.11088665 197.8684082 324.70874023 C199.4152832 326.30639648 199.4152832 326.30639648 201.3527832 329.49389648 C204.80147592 334.19665928 209.33283964 336.66273211 214.8527832 338.36889648 C216.1212207 338.83295898 216.1212207 338.83295898 217.4152832 339.30639648 C219.33312876 343.8247106 218.02128023 349.06601869 217.5715332 353.79858398 C217.42175571 357.16108876 217.73224473 360.02178501 218.4152832 363.30639648 C219.0752832 363.30639648 219.7352832 363.30639648 220.4152832 363.30639648 C223.4152832 368.93139648 223.4152832 368.93139648 223.4152832 372.30639648 C224.1371582 372.55389648 224.8590332 372.80139648 225.6027832 373.05639648 C228.4152832 374.30639648 228.4152832 374.30639648 230.6027832 376.30639648 C234.57683306 379.13238749 238.65702649 379.60420714 243.4152832 380.30639648 C243.66723633 385.84936523 243.66723633 385.84936523 242.4074707 388.13452148 C241.10356469 390.98874095 241.29046403 393.18591713 241.4152832 396.30639648 C241.57492289 400.29738873 241.53269247 402.86560643 239.4152832 406.30639648 C240.7352832 406.63639648 242.0552832 406.96639648 243.4152832 407.30639648 C243.42946289 408.27319336 243.44364258 409.23999023 243.45825195 410.23608398 C243.7399148 417.92471841 244.30219336 423.5996066 248.35668945 430.35327148 C249.4152832 432.30639648 249.4152832 432.30639648 249.4152832 435.30639648 C250.7352832 435.96639648 252.0552832 436.62639648 253.4152832 437.30639648 C253.4152832 438.62639648 253.4152832 439.94639648 253.4152832 441.30639648 C251.08641662 442.47082978 249.76680109 442.42160477 247.17529297 442.40405273 C246.29579483 442.40074951 245.41629669 442.39744629 244.51014709 442.39404297 C243.55200607 442.38574463 242.59386505 442.37744629 241.60668945 442.36889648 C240.61136703 442.36510986 239.61604462 442.36132324 238.59056091 442.35742188 C234.33343359 442.34115294 230.07640252 442.31352982 225.81933594 442.28588867 C215.46857441 442.22442622 205.15224612 442.16630399 194.81762695 442.80639648 C187.19464614 443.27806578 179.6172306 443.36476547 171.980896 443.32765198 C159.00009082 443.27153727 146.02245533 443.48507744 133.04345703 443.67871094 C130.07408496 443.72285666 127.10469448 443.76444507 124.13525391 443.80371094 C119.76368664 443.86156775 115.39220602 443.92415322 111.02075195 443.98999023 C110.32351894 444.0002058 109.62628593 444.01042137 108.90792465 444.0209465 C100.08200326 444.15516179 91.27232404 444.37080448 82.47612 445.15513611 C78.86123059 445.4360325 76.48800784 445.32893105 73.4152832 443.30639648 C73.4771582 442.37827148 73.5390332 441.45014648 73.6027832 440.49389648 C73.74673951 437.32849357 73.74673951 437.32849357 71.9152832 435.61889648 C71.4202832 435.18577148 70.9252832 434.75264648 70.4152832 434.30639648 C70.4152832 433.31639648 70.4152832 432.32639648 70.4152832 431.30639648 C69.7965332 431.05889648 69.1777832 430.81139648 68.5402832 430.55639648 C66.06459634 429.10011009 65.46403318 427.92827142 64.4152832 425.30639648 C63.7552832 425.30639648 63.0952832 425.30639648 62.4152832 425.30639648 C58.89158765 420.98702774 57.56620424 416.88276416 56.3215332 411.47827148 C55.16682477 408.71095299 54.04777921 408.56475978 51.4152832 407.30639648 C50.18481445 405.28295898 50.18481445 405.28295898 49.2277832 402.93139648 C48.90422852 402.16053711 48.58067383 401.38967773 48.24731445 400.59545898 C45.10308037 391.94512485 45.88963026 382.26960751 47.4152832 373.30639648 C47.58385803 370.55574416 47.58385803 370.55574416 47.4152832 368.30639648 C47.0852832 367.97639648 46.7552832 367.64639648 46.4152832 367.30639648 C45.95374755 364.66513306 45.57970549 362.01642512 45.20825195 359.36108398 C44.23068293 355.59527621 42.41990507 352.59213404 40.4152832 349.30639648 C39.75485344 348.13107462 39.09984426 346.9526895 38.45043945 345.77124023 C37.96220703 344.89822266 37.96220703 344.89822266 37.46411133 344.00756836 C36.80582067 342.83046646 36.1521752 341.65075486 35.50317383 340.46850586 C33.82701425 337.48976863 32.06113459 334.78443937 29.8371582 332.20092773 C27.61436699 329.54433372 26.10169539 327.15890678 24.6027832 324.05639648 C23.97436523 322.78022461 23.97436523 322.78022461 23.33325195 321.47827148 C22.4152832 319.30639648 22.4152832 319.30639648 22.4152832 317.30639648 C21.7552832 317.30639648 21.0952832 317.30639648 20.4152832 317.30639648 C20.0852832 315.98639648 19.7552832 314.66639648 19.4152832 313.30639648 C16.72803616 312.82577525 14.04050288 312.34686152 11.3527832 311.86889648 C10.22453125 311.66683594 10.22453125 311.66683594 9.07348633 311.46069336 C5.52736834 310.83129579 1.99070457 310.23764561 -1.58081055 309.77124023 C-4.5847168 309.30639648 -4.5847168 309.30639648 -5.5847168 308.30639648 C-7.11028395 308.10297505 -8.64389416 307.9591208 -10.1784668 307.84155273 C-11.6015918 307.72457031 -11.6015918 307.72457031 -13.0534668 307.60522461 C-15.04293676 307.45011774 -17.03251759 307.29642501 -19.0222168 307.14428711 C-23.40970096 306.78161201 -27.65409212 306.373413 -31.9362793 305.32983398 C-38.02635548 303.8644349 -44.23509283 303.44780845 -50.4597168 302.86889648 C-59.36619753 301.99509282 -68.19649263 301.01673879 -77.01902771 299.51939392 C-83.97970251 298.35662029 -90.96449996 297.42763894 -97.96362305 296.52905273 C-98.94338765 296.40280455 -98.94338765 296.40280455 -99.94294548 296.27400589 C-112.21059636 294.69653772 -124.49148118 293.23685368 -136.77612305 291.79858398 C-137.68634216 291.69184546 -138.59656128 291.58510693 -139.53436279 291.4751339 C-148.00443984 290.48189157 -156.47468013 289.49011063 -164.94628906 288.51000977 C-169.64459739 287.96621715 -174.34214658 287.41624074 -179.03925896 286.86221695 C-180.8063662 286.65498148 -182.5737455 286.45005135 -184.34140205 286.24755478 C-186.78985078 285.96686787 -189.23725309 285.67830373 -191.68457031 285.38793945 C-192.3997583 285.3079068 -193.11494629 285.22787415 -193.85180664 285.14541626 C-197.97770863 284.64611098 -201.69032145 283.75523892 -205.5847168 282.30639648 C-205.4232613 276.00963213 -201.80123851 271.68846293 -197.5847168 267.30639648 C-196.9247168 267.30639648 -196.2647168 267.30639648 -195.5847168 267.30639648 C-195.5847168 266.64639648 -195.5847168 265.98639648 -195.5847168 265.30639648 C-194.9247168 265.30639648 -194.2647168 265.30639648 -193.5847168 265.30639648 C-193.5847168 264.64639648 -193.5847168 263.98639648 -193.5847168 263.30639648 C-191.6047168 262.64639648 -189.6247168 261.98639648 -187.5847168 261.30639648 C-187.5847168 260.64639648 -187.5847168 259.98639648 -187.5847168 259.30639648 C-186.08862305 257.86889648 -186.08862305 257.86889648 -184.1472168 256.30639648 C-181.43283442 254.16114605 -181.43283442 254.16114605 -179.5847168 251.30639648 C-178.9247168 251.30639648 -178.2647168 251.30639648 -177.5847168 251.30639648 C-177.1825293 250.23325195 -177.1825293 250.23325195 -176.7722168 249.13842773 C-175.56740373 246.26510709 -174.17234568 243.67302022 -172.5847168 240.99389648 C-172.0690918 240.11088867 -171.5534668 239.22788086 -171.0222168 238.31811523 C-170.5478418 237.65424805 -170.0734668 236.99038086 -169.5847168 236.30639648 C-168.9247168 236.30639648 -168.2647168 236.30639648 -167.5847168 236.30639648 C-167.3372168 235.77014648 -167.0897168 235.23389648 -166.8347168 234.68139648 C-164.40655277 230.06788483 -161.42055349 226.09113975 -158.1472168 222.05639648 C-155.64080877 218.90351536 -153.84199295 215.92075383 -152.2097168 212.24389648 C-149.93203603 207.35447512 -146.87618135 204.50155887 -142.6706543 201.19311523 C-140.3559597 199.09948697 -139.12609409 197.00486248 -137.5847168 194.30639648 C-136.53385462 193.08792844 -135.47078003 191.87991126 -134.3972168 190.68139648 C-129.18415064 184.12909252 -126.51600796 176.21244654 -123.45849609 168.50195312 C-121.53401043 163.66627289 -119.56764821 159.03151962 -116.7722168 154.61889648 C-113.85303934 149.87704853 -111.38326787 144.99042324 -108.97924805 139.97045898 C-107.69079397 137.50904252 -106.26727412 135.50499588 -104.5847168 133.30639648 C-99.82624633 125.59355759 -97.8349224 118.78660376 -97.2019043 109.75170898 C-96.47993135 105.72145494 -94.97003399 103.59831025 -92.5847168 100.30639648 C-91.62406606 98.3692601 -90.7081223 96.40940307 -89.8347168 94.43139648 C-87.85878098 90.02931163 -85.78776977 85.72346275 -83.56274414 81.44262695 C-78.64947285 71.94578769 -74.90815108 62.33030066 -72.5222168 51.86889648 C-71.59281052 48.33715263 -70.34911105 45.50351054 -68.6394043 42.30249023 C-67.95381825 41.00495516 -67.31007796 39.6841292 -66.7175293 38.34155273 C-62.92496418 29.86701565 -56.97481715 23.28065454 -48.5847168 19.30639648 C-47.90795898 18.97124023 -47.23120117 18.63608398 -46.53393555 18.29077148 C-42.42723439 16.3358942 -38.43945056 14.95640355 -34.0222168 13.86889648 C-27.41734958 12.16233163 -22.55064909 9.07839531 -17.4597168 4.61889648 C-12.08389496 0.29486588 -6.69395532 0.00567503 0 0 Z M142.4152832 55.30639648 C142.78412007 73.31234194 150.60646089 88.59316302 160.4152832 103.30639648 C163.99885562 103.55655521 163.99885562 103.55655521 167.4152832 103.30639648 C167.7865332 104.56452148 168.1577832 105.82264648 168.5402832 107.11889648 C170.15266701 111.99443799 172.47442637 116.27215143 175.0012207 120.72827148 C176.17040147 122.85992702 177.14801053 124.92620181 178.0402832 127.18139648 C179.44800482 130.3807638 181.11686293 132.69095273 183.4152832 135.30639648 C183.00084469 128.12279554 180.90979716 121.61874106 177.4152832 115.30639648 C176.4252832 114.97639648 175.4352832 114.64639648 174.4152832 114.30639648 C174.4152832 113.64639648 174.4152832 112.98639648 174.4152832 112.30639648 C173.7552832 112.30639648 173.0952832 112.30639648 172.4152832 112.30639648 C172.25672852 111.59354492 172.09817383 110.88069336 171.93481445 110.14624023 C170.47966877 104.17290739 169.0766138 98.58341525 164.4152832 94.30639648 C162.58729924 93.39716571 162.58729924 93.39716571 160.6652832 92.74389648 C159.5927832 92.26952148 158.5202832 91.79514648 157.4152832 91.30639648 C156.4777832 88.11889648 156.4777832 88.11889648 156.4152832 85.30639648 C158.0652832 84.97639648 159.7152832 84.64639648 161.4152832 84.30639648 C161.7452832 83.31639648 162.0752832 82.32639648 162.4152832 81.30639648 C164.0652832 80.97639648 165.7152832 80.64639648 167.4152832 80.30639648 C167.7452832 78.98639648 168.0752832 77.66639648 168.4152832 76.30639648 C167.3427832 76.16202148 166.2702832 76.01764648 165.1652832 75.86889648 C162.49865371 75.46890206 160.00128591 75.03047724 157.4152832 74.30639648 C157.0852832 72.65639648 156.7552832 71.00639648 156.4152832 69.30639648 C154.1052832 69.63639648 151.7952832 69.96639648 149.4152832 70.30639648 C148.9821582 69.13077148 148.5490332 67.95514648 148.1027832 66.74389648 C146.65492876 62.87605675 145.07049004 59.08972639 143.4152832 55.30639648 C143.0852832 55.30639648 142.7552832 55.30639648 142.4152832 55.30639648 Z M172.4152832 150.30639648 C176.68848773 153.1551995 179.19697178 154.59630267 184.4152832 154.30639648 C184.4152832 152.98639648 184.4152832 151.66639648 184.4152832 150.30639648 C180.4552832 150.30639648 176.4952832 150.30639648 172.4152832 150.30639648 Z M140.4152832 201.30639648 C139.8377832 201.88389648 139.2602832 202.46139648 138.6652832 203.05639648 C136.58194987 205.13972982 134.49861654 207.22306315 132.4152832 209.30639648 C133.10235352 209.23420898 133.78942383 209.16202148 134.49731445 209.08764648 C135.84889648 208.94842773 135.84889648 208.94842773 137.2277832 208.80639648 C138.12110352 208.71358398 139.01442383 208.62077148 139.93481445 208.52514648 C142.4152832 208.30639648 142.4152832 208.30639648 145.4152832 208.30639648 C145.4152832 207.64639648 145.4152832 206.98639648 145.4152832 206.30639648 C144.4252832 205.64639648 143.4352832 204.98639648 142.4152832 204.30639648 C141.7552832 203.31639648 141.0952832 202.32639648 140.4152832 201.30639648 Z M164.4152832 211.30639648 C163.0570035 212.95279613 161.7227407 214.61935456 160.4152832 216.30639648 C162.3952832 217.29639648 162.3952832 217.29639648 164.4152832 218.30639648 C164.7452832 215.99639648 165.0752832 213.68639648 165.4152832 211.30639648 C165.0852832 211.30639648 164.7552832 211.30639648 164.4152832 211.30639648 Z " fill="#3E7743" transform="translate(221.584716796875,35.693603515625)"/>
<path d="M0 0 C36.073125 -0.0928125 36.073125 -0.0928125 72.875 -0.1875 C80.47901855 -0.21481201 88.08303711 -0.24212402 95.91748047 -0.27026367 C105.17602539 -0.28381348 105.17602539 -0.28381348 109.50515747 -0.28633118 C112.54013599 -0.28913535 115.57495837 -0.30041398 118.6098938 -0.31672668 C122.47568265 -0.33723148 126.3412429 -0.34348709 130.20708108 -0.33921683 C131.6292442 -0.34011037 133.05141493 -0.34610223 134.47353148 -0.35764539 C136.38788601 -0.37246781 138.30236528 -0.36720253 140.21676636 -0.36076355 C141.82898229 -0.36491162 141.82898229 -0.36491162 143.47376823 -0.36914349 C144.30742472 -0.24732614 145.1410812 -0.12550879 146 0 C146.99 1.485 146.99 1.485 148 3 C146.71034824 4.37562854 145.37310707 5.70766393 144 7 C143.34 7 142.68 7 142 7 C142 7.66 142 8.32 142 9 C140.4840625 9.495 140.4840625 9.495 138.9375 10 C134.64846773 11.78709678 132.30759864 14.7649491 129.48046875 18.35546875 C128.99191406 18.89816406 128.50335938 19.44085938 128 20 C127.34 20 126.68 20 126 20 C125.62875 20.8353125 125.62875 20.8353125 125.25 21.6875 C123.77075182 24.42410913 122.06532561 26.67650869 120 29 C119.34 29 118.68 29 118 29 C117.72800781 29.72960937 117.45601562 30.45921875 117.17578125 31.2109375 C114.64918617 37.20425606 111.21599566 43.42263595 105 46 C103.824375 46.2475 102.64875 46.495 101.4375 46.75 C97.77522535 48.08173624 97.36684683 48.43860028 95.5625 51.625 C95.046875 52.73875 94.53125 53.8525 94 55 C100.55510203 55.8526962 106.89571963 56.09740827 113.5 56 C115.28119112 55.97462691 117.06245046 55.95354774 118.84375 55.9375 C120.00680664 55.92009766 120.00680664 55.92009766 121.19335938 55.90234375 C123 56 123 56 124 57 C124.23481693 59.18292774 124.41363323 61.37203174 124.5625 63.5625 C124.64628906 64.76003906 124.73007812 65.95757812 124.81640625 67.19140625 C124.87699219 68.11824219 124.93757812 69.04507813 125 70 C133.49769912 69.72980289 141.31468311 68.88665835 149 65 C149.33 64.34 149.66 63.68 150 63 C156.71874888 59.95775051 162.81269255 57.9290809 170 60 C171.81132218 61.1433459 173.46022269 62.39316768 175.1328125 63.73046875 C177.90792554 65.61731339 180.87353855 66.42407364 184.08203125 67.32421875 C186 68 186 68 188 70 C189.60540525 74.36795324 189.30854186 79.28471732 189.4296875 83.89257812 C189.65412081 88.83478659 190.81210207 92.48948136 193 97 C196.88022334 105.33106777 197.93943793 113.70355487 198.87304688 122.76367188 C199.49416416 128.4375592 200.4814115 132.87527847 203 138 C203.8125 140.8125 203.8125 140.8125 204 143 C203.34 143.66 202.68 144.32 202 145 C203.65 145.33 205.3 145.66 207 146 C207.33 148.64 207.66 151.28 208 154 C208.66 154 209.32 154 210 154 C210.42410156 155.0621875 210.84820312 156.124375 211.28515625 157.21875 C214.23954598 164.40960707 216.89218034 170.80449016 222.453125 176.40234375 C224 178 224 178 225.9375 181.1875 C229.38619272 185.8902628 233.91755644 188.35633563 239.4375 190.0625 C240.283125 190.371875 241.12875 190.68125 242 191 C243.91784556 195.51831412 242.60599703 200.75962221 242.15625 205.4921875 C242.0064725 208.85469227 242.31696153 211.71538852 243 215 C243.66 215 244.32 215 245 215 C248 220.625 248 220.625 248 224 C248.721875 224.2475 249.44375 224.495 250.1875 224.75 C253 226 253 226 255.1875 228 C259.16154985 230.82599101 263.24174328 231.29781066 268 232 C268.25195312 237.54296875 268.25195312 237.54296875 266.9921875 239.828125 C265.68828148 242.68234447 265.87518083 244.87952065 266 248 C266.15963969 251.99099224 266.11740926 254.55920995 264 258 C265.32 258.33 266.64 258.66 268 259 C268.01417969 259.96679688 268.02835937 260.93359375 268.04296875 261.9296875 C268.3246316 269.61832192 268.88691016 275.29321012 272.94140625 282.046875 C274 284 274 284 274 287 C275.32 287.66 276.64 288.32 278 289 C278 290.32 278 291.64 278 293 C275.67113342 294.16443329 274.35151789 294.11520829 271.76000977 294.09765625 C270.88051163 294.09435303 270.00101349 294.0910498 269.09486389 294.08764648 C268.13672287 294.07934814 267.17858185 294.0710498 266.19140625 294.0625 C265.19608383 294.05871338 264.20076141 294.05492676 263.17527771 294.05102539 C258.91815039 294.03475646 254.66111931 294.00713334 250.40405273 293.97949219 C240.0532912 293.91802974 229.73696291 293.85990751 219.40234375 294.5 C211.77936294 294.9716693 204.2019474 295.05836898 196.56561279 295.02125549 C183.58480762 294.96514079 170.60717213 295.17868095 157.62817383 295.37231445 C154.65880176 295.41646018 151.68941128 295.45804859 148.7199707 295.49731445 C144.34840344 295.55517127 139.97692282 295.61775674 135.60546875 295.68359375 C134.90823574 295.69380932 134.21100273 295.70402489 133.49264145 295.71455002 C124.66672006 295.8487653 115.85704084 296.06440799 107.06083679 296.84873962 C103.44594739 297.12963601 101.07272463 297.02253456 98 295 C98.061875 294.071875 98.12375 293.14375 98.1875 292.1875 C98.3314563 289.02209709 98.3314563 289.02209709 96.5 287.3125 C96.005 286.879375 95.51 286.44625 95 286 C95 285.01 95 284.02 95 283 C94.38125 282.7525 93.7625 282.505 93.125 282.25 C90.64931313 280.79371361 90.04874998 279.62187494 89 277 C88.34 277 87.68 277 87 277 C83.47630445 272.68063126 82.15092104 268.57636767 80.90625 263.171875 C79.75154156 260.40455651 78.63249601 260.25836329 76 259 C74.76953125 256.9765625 74.76953125 256.9765625 73.8125 254.625 C73.48894531 253.85414063 73.16539062 253.08328125 72.83203125 252.2890625 C69.68779717 243.63872837 70.47434706 233.96321102 72 225 C72.16857483 222.24934768 72.16857483 222.24934768 72 220 C71.67 219.67 71.34 219.34 71 219 C70.53846435 216.35873658 70.16442229 213.71002863 69.79296875 211.0546875 C68.81539972 207.28887972 67.00462186 204.28573756 65 201 C64.33957024 199.82467813 63.68456105 198.64629301 63.03515625 197.46484375 C62.70966797 196.88283203 62.38417969 196.30082031 62.04882812 195.70117188 C61.39053747 194.52406997 60.736892 193.34435837 60.08789062 192.16210938 C58.41173105 189.18337214 56.64585139 186.47804289 54.421875 183.89453125 C52.19908379 181.23793724 50.68641218 178.8525103 49.1875 175.75 C48.76855469 174.89921875 48.34960938 174.0484375 47.91796875 173.171875 C47 171 47 171 47 169 C46.34 169 45.68 169 45 169 C44.67 167.68 44.34 166.36 44 165 C41.31275296 164.51937876 38.62521967 164.04046504 35.9375 163.5625 C34.80924805 163.36043945 34.80924805 163.36043945 33.65820312 163.15429688 C30.11208513 162.52489931 26.57542136 161.93124912 23.00390625 161.46484375 C20 161 20 161 19 160 C17.45131462 159.78458276 15.89420129 159.62901537 14.3359375 159.5 C13.37816406 159.4175 12.42039063 159.335 11.43359375 159.25 C10.42425781 159.1675 9.41492188 159.085 8.375 159 C2.21950085 158.48503014 -3.89581402 157.95751937 -10 157 C-10 154 -10 154 -8.3203125 152.17578125 C-7.59585938 151.56089844 -6.87140625 150.94601562 -6.125 150.3125 C-5.04605469 149.37857422 -5.04605469 149.37857422 -3.9453125 148.42578125 C-2 147 -2 147 0 147 C0 98.49 0 49.98 0 0 Z " fill="#B42D31" transform="translate(197,184)"/>
<path d="M0 0 C36.073125 -0.0928125 36.073125 -0.0928125 72.875 -0.1875 C80.47901855 -0.21481201 88.08303711 -0.24212402 95.91748047 -0.27026367 C105.17602539 -0.28381348 105.17602539 -0.28381348 109.50515747 -0.28633118 C112.54013599 -0.28913535 115.57495837 -0.30041398 118.6098938 -0.31672668 C122.47568265 -0.33723148 126.3412429 -0.34348709 130.20708108 -0.33921683 C131.6292442 -0.34011037 133.05141493 -0.34610223 134.47353148 -0.35764539 C136.38788601 -0.37246781 138.30236528 -0.36720253 140.21676636 -0.36076355 C141.82898229 -0.36491162 141.82898229 -0.36491162 143.47376823 -0.36914349 C144.30742472 -0.24732614 145.1410812 -0.12550879 146 0 C146.99 1.485 146.99 1.485 148 3 C146.71034824 4.37562854 145.37310707 5.70766393 144 7 C143.34 7 142.68 7 142 7 C142 7.66 142 8.32 142 9 C140.4840625 9.495 140.4840625 9.495 138.9375 10 C134.64846773 11.78709678 132.30759864 14.7649491 129.48046875 18.35546875 C128.99191406 18.89816406 128.50335938 19.44085938 128 20 C127.34 20 126.68 20 126 20 C125.62875 20.8353125 125.62875 20.8353125 125.25 21.6875 C123.77075182 24.42410913 122.06532561 26.67650869 120 29 C119.34 29 118.68 29 118 29 C117.72800781 29.72960937 117.45601563 30.45921875 117.17578125 31.2109375 C114.64918617 37.20425606 111.21599566 43.42263595 105 46 C103.824375 46.2475 102.64875 46.495 101.4375 46.75 C97.77522535 48.08173624 97.36684683 48.43860028 95.5625 51.625 C95.046875 52.73875 94.53125 53.8525 94 55 C100.55510203 55.8526962 106.89571963 56.09740827 113.5 56 C115.28119112 55.97462691 117.06245046 55.95354774 118.84375 55.9375 C120.00680664 55.92009766 120.00680664 55.92009766 121.19335938 55.90234375 C123 56 123 56 124 57 C124.23481693 59.18292774 124.41363323 61.37203174 124.5625 63.5625 C124.64628906 64.76003906 124.73007812 65.95757812 124.81640625 67.19140625 C124.87699219 68.11824219 124.93757813 69.04507813 125 70 C133.49769912 69.72980289 141.31468311 68.88665835 149 65 C149.33 64.34 149.66 63.68 150 63 C156.71874888 59.95775051 162.81269255 57.9290809 170 60 C171.81132218 61.1433459 173.46022269 62.39316768 175.1328125 63.73046875 C177.90792554 65.61731339 180.87353855 66.42407364 184.08203125 67.32421875 C186 68 186 68 188 70 C189.60540525 74.36795324 189.30854186 79.28471732 189.4296875 83.89257812 C189.65412081 88.83478659 190.81210207 92.48948136 193 97 C196.88022334 105.33106777 197.93943793 113.70355487 198.87304688 122.76367188 C199.49456851 128.44125291 200.49709368 132.86635075 203 138 C203.6875 140.9375 203.6875 140.9375 204 143 C200.52101718 146.44348322 198.04580009 147.46082959 193.14614362 147.51632524 C192.38640911 147.50467387 191.62667461 147.4930225 190.84391785 147.48101807 C190.0270188 147.48443577 189.21011976 147.48785347 188.3684662 147.49137473 C185.63355114 147.49795884 182.89961942 147.47596916 180.16479492 147.45410156 C178.20349145 147.4529732 176.24218628 147.45360673 174.28088379 147.45587158 C168.95682165 147.45702008 163.63311937 147.43348853 158.30914092 147.40557575 C152.74511901 147.38058491 147.18108902 147.37822192 141.61701965 147.37347412 C131.08085626 147.36103755 120.54485872 147.32820663 110.00876838 147.28807616 C95.77123598 147.2350236 81.53365828 147.21341849 67.29605198 147.19006729 C44.8639104 147.1524458 22.43211883 147.07275937 0 147 C0 98.49 0 49.98 0 0 Z " fill="#FDFDFD" transform="translate(197,184)"/>
<path d="M0 0 C2.9375 0.8125 2.9375 0.8125 6 2 C6.495 3.485 6.495 3.485 7 5 C8.65714821 5.68998698 10.32603967 6.35186494 12 7 C13.99492545 8.40786292 15.9514263 9.87111511 17.875 11.375 C21.22533152 13.94868253 24.47458991 16.41577049 28.1875 18.4375 C31 20 31 20 32 22 C33.64363134 22.72159424 35.31050386 23.39351421 37 24 C37 24.66 37 25.32 37 26 C37.763125 26.268125 38.52625 26.53625 39.3125 26.8125 C41.96662954 27.98525491 43.03854108 28.95681362 45 31 C48.00599319 32.99522287 51.02027781 34.4140355 54.35162354 35.74971008 C59.84336988 38.24955965 64.46259909 41.00651293 68 46 C71.2152691 55.72737749 70.3836877 66.67470159 70.15440655 76.80584884 C70.078489 80.8934543 70.09787497 84.98077153 70.10406494 89.06892395 C70.10022412 95.92861381 70.02636223 102.78470636 69.90722656 109.64331055 C69.77038715 117.55496112 69.73189814 125.46226608 69.7487638 133.37498397 C69.7638517 141.01406612 69.72179261 148.65170119 69.64966583 156.29043007 C69.61932402 159.5291937 69.60644314 162.76731574 69.60747528 166.00621605 C69.60520165 169.82385878 69.55193861 173.63762636 69.46035767 177.4541378 C69.43451457 178.84824233 69.42520513 180.24277442 69.43430328 181.63708878 C69.46323684 187.46565395 69.43811959 192.12442416 65.8059454 196.86145592 C62.11771112 200.30037043 59.38456422 202.69359627 54.41235352 203.79394531 C52.78704712 203.56336426 52.78704712 203.56336426 51.12890625 203.328125 C49.29404663 203.10491577 49.29404663 203.10491577 47.42211914 202.87719727 C45.51160767 202.56673462 45.51160767 202.56673462 43.5625 202.25 C42.21208225 202.06723254 40.86107001 201.88880819 39.50952148 201.71459961 C35.66288845 201.20446394 31.83223033 200.60933728 28 200 C26.30222439 199.74515227 24.60433052 199.49108933 22.90625 199.23828125 C20.04819383 198.79990565 17.19666637 198.33216452 14.34570312 197.85009766 C8.12372386 196.83354169 1.87768017 196.0250684 -4.375 195.22265625 C-5.0283325 195.13849079 -5.681665 195.05432533 -6.35479546 194.96760941 C-18.62360428 193.39028586 -30.90564576 191.93062101 -43.19140625 190.4921875 C-44.1016197 190.38544897 -45.01183315 190.27871044 -45.94962883 190.16873741 C-54.4197116 189.1754951 -62.88995769 188.1837148 -71.36157227 187.20361328 C-76.0598806 186.65982067 -80.75742978 186.10984426 -85.45454216 185.55582047 C-87.22164941 185.348585 -88.9890287 185.14365487 -90.75668526 184.94115829 C-93.20513398 184.66047138 -95.65253629 184.37190725 -98.09985352 184.08154297 C-98.8150415 184.00151031 -99.53022949 183.92147766 -100.26708984 183.83901978 C-104.39299183 183.3397145 -108.10560466 182.44884244 -112 181 C-111.8385445 174.70323565 -108.21652171 170.38206645 -104 166 C-103.34 166 -102.68 166 -102 166 C-102 165.34 -102 164.68 -102 164 C-101.34 164 -100.68 164 -100 164 C-100 163.34 -100 162.68 -100 162 C-97.03 161.01 -97.03 161.01 -94 160 C-94 159.34 -94 158.68 -94 158 C-92.50390625 156.5625 -92.50390625 156.5625 -90.5625 155 C-87.84811762 152.85474956 -87.84811762 152.85474956 -86 150 C-85.34 150 -84.68 150 -84 150 C-83.5978125 148.92685547 -83.5978125 148.92685547 -83.1875 147.83203125 C-81.98268693 144.95871061 -80.58762888 142.36662374 -79 139.6875 C-78.484375 138.80449219 -77.96875 137.92148437 -77.4375 137.01171875 C-76.963125 136.34785156 -76.48875 135.68398438 -76 135 C-75.34 135 -74.68 135 -74 135 C-73.7525 134.46375 -73.505 133.9275 -73.25 133.375 C-70.82183597 128.76148834 -67.83583669 124.78474327 -64.5625 120.75 C-62.05609198 117.59711887 -60.25727615 114.61435735 -58.625 110.9375 C-56.34731924 106.04807863 -53.29146455 103.19516239 -49.0859375 99.88671875 C-46.7712429 97.79309049 -45.54137729 95.69846599 -44 93 C-42.94913782 91.78153196 -41.88606324 90.57351478 -40.8125 89.375 C-35.59943384 82.82269604 -32.93129116 74.90605006 -29.8737793 67.19555664 C-27.94929363 62.3598764 -25.98293141 57.72512314 -23.1875 53.3125 C-20.26832255 48.57065205 -17.79855107 43.68402675 -15.39453125 38.6640625 C-14.10607718 36.20264603 -12.68255733 34.19859939 -11 32 C-6.17366128 24.17715581 -4.23004993 17.35703309 -3.51953125 8.34765625 C-2.97931017 4.8666828 -2.01024665 2.85552557 0 0 Z " fill="#010101" transform="translate(128,137)"/>
<path d="M0 0 C0.66 0 1.32 0 2 0 C2.495 2.475 2.495 2.475 3 5 C2.030625 5.515625 1.06125 6.03125 0.0625 6.5625 C-3.84319348 9.67111318 -3.42020947 11.19602129 -4 16 C-5.91725995 19.42204167 -7.98284101 21.68355054 -11.8125 22.875 C-12.534375 22.91625 -13.25625 22.9575 -14 23 C-14.495 21.515 -14.495 21.515 -15 20 C-14.67 19.34 -14.34 18.68 -14 18 C-14.66 18 -15.32 18 -16 18 C-16.268125 18.556875 -16.53625 19.11375 -16.8125 19.6875 C-19.33975064 24.6089881 -22.08204553 28.08204553 -26 32 C-26.31066406 32.64839844 -26.62132812 33.29679687 -26.94140625 33.96484375 C-28.1343567 36.25830199 -29.36984061 37.38886757 -31.375 39 C-33.42268523 40.66926291 -35.17942911 42.20258125 -36.9375 44.1875 C-39.96801766 46.85068219 -43.18453566 47.72817855 -47 49 C-46.34 49.33 -45.68 49.66 -45 50 C-43.515 49.505 -43.515 49.505 -42 49 C-40.55499799 48.87687003 -39.10577252 48.79947232 -37.65625 48.75390625 C-36.82222656 48.72103516 -35.98820312 48.68816406 -35.12890625 48.65429688 C-33.37643397 48.59310356 -31.62382114 48.53581105 -29.87109375 48.48242188 C-29.03707031 48.44826172 -28.20304687 48.41410156 -27.34375 48.37890625 C-26.58255859 48.3538501 -25.82136719 48.32879395 -25.03710938 48.30297852 C-22.69121653 48.10199945 -22.69121653 48.10199945 -20 46 C-16.8125 45.875 -16.8125 45.875 -14 46 C-14.62555066 52.50572687 -14.62555066 52.50572687 -16.5625 55.0625 C-18.54270806 57.73147608 -18.22057267 59.76493417 -18 63 C-16.60461746 63.05472088 -15.20859103 63.09311538 -13.8125 63.125 C-13.03519531 63.14820313 -12.25789063 63.17140625 -11.45703125 63.1953125 C-6.85702386 62.82965214 -3.4162071 60.77101003 0.3125 58.1875 C3.26195997 56.16220415 6.23083149 54.25430457 9.3125 52.4375 C12.00302542 50.79978887 13.18733972 49.75913465 15.1875 47.1875 C17 45 17 45 19.3828125 44.58984375 C22 45 22 45 23.94921875 46.8984375 C24.52285156 47.71570313 25.09648437 48.53296875 25.6875 49.375 C28.15985219 52.84189752 28.15985219 52.84189752 31 56 C31 56.99 31 57.98 31 59 C36.2856664 59.4916899 37.99446599 58.26767248 42 55 C45.05191378 55.17439507 45.81258515 55.81258515 48 58 C48.32951945 64.81006865 48.32951945 64.81006865 47.5078125 67.77734375 C45.66274217 75.85307467 45.95611783 85.32149409 49.8515625 92.62890625 C54.09129591 101.38236946 55.49559564 111.48804025 56.14111328 121.1015625 C56.45578526 124.81666414 57.12983915 127.54374884 59.046875 130.69140625 C60.96117217 133.93422565 61.47471428 135.28589296 61.25 138.9375 C61.21390625 139.70964844 61.1778125 140.48179687 61.140625 141.27734375 C61.09421875 141.84582031 61.0478125 142.41429687 61 143 C59.02 143 57.04 143 55 143 C55.66 142.01 56.32 141.02 57 140 C56.74464846 136.93578151 55.90023834 134.79727577 54.5390625 132.03125 C52.41140353 127.12590308 52.10572963 122.02171896 51.5625 116.75 C50.46706314 107.32924297 48.68445039 99.36225611 44.421875 90.84765625 C42.49076436 86.32024762 42.40172112 81.80341292 42.25 76.9375 C42.18619141 75.62942383 42.18619141 75.62942383 42.12109375 74.29492188 C41.9337427 69.71176009 42.02163983 65.51379804 43 61 C42.59394531 61.49628906 42.18789063 61.99257812 41.76953125 62.50390625 C40 64 40 64 37.94921875 64.21484375 C32.71760897 63.57331647 29.09270985 62.58112112 25 59 C24.375 56.875 24.375 56.875 24 55 C22.03327085 53.8499169 22.03327085 53.8499169 20 53 C19.67 52.34 19.34 51.68 19 51 C18.443125 51.5775 17.88625 52.155 17.3125 52.75 C13.03413793 56.91273066 9.67383888 59.14983515 4 61 C3.525625 61.47953125 3.05125 61.9590625 2.5625 62.453125 C-2.05158492 67.02106907 -8.9331949 67.1875 -15.0625 67.1875 C-17.021875 67.125625 -18.98125 67.06375 -21 67 C-21.66 62.71 -22.32 58.42 -23 54 C-25.76310547 54.03480469 -25.76310547 54.03480469 -28.58203125 54.0703125 C-30.99218346 54.08906855 -33.40234003 54.10726892 -35.8125 54.125 C-37.02744141 54.14175781 -38.24238281 54.15851563 -39.49414062 54.17578125 C-40.65751953 54.18222656 -41.82089844 54.18867188 -43.01953125 54.1953125 C-44.62985229 54.21102295 -44.62985229 54.21102295 -46.27270508 54.22705078 C-49 54 -49 54 -52 52 C-51.41971011 48.08304321 -49.77966299 45.77966299 -47 43 C-43.87555124 41.88412544 -40.97070141 41.13117587 -37.6875 40.6875 C-37.130625 40.460625 -36.57375 40.23375 -36 40 C-35.31754286 38.33973662 -34.65348732 36.67187815 -34 35 C-30.92024554 29.7255818 -27.49973806 25.15360436 -23 21 C-20.58693087 18.65214896 -18.2613219 16.31662239 -16.1171875 13.71875 C-10.70291115 7.21338374 -10.70291115 7.21338374 -6.5 5.9375 C-5.2625 5.9684375 -5.2625 5.9684375 -4 6 C-4 5.34 -4 4.68 -4 4 C-3.34 4 -2.68 4 -2 4 C-1.34 2.68 -0.68 1.36 0 0 Z " fill="#456749" transform="translate(343,187)"/>
<path d="M0 0 C0.33 0.99 0.66 1.98 1 3 C-1.76648468 6.20912223 -4.20308327 7.499781 -8.1171875 9.0078125 C-11.70901413 10.9006008 -14.30805277 14.01349319 -17 17 C-15.68 17.33 -14.36 17.66 -13 18 C-12.34 17.01 -11.68 16.02 -11 15 C-8.3125 14.25 -8.3125 14.25 -5 15 C-2.26329537 17.73090653 -0.13980299 20.79029551 2 24 C2.639375 24.928125 3.27875 25.85625 3.9375 26.8125 C5 29 5 29 5 33 C2.45907827 35.03273738 0.59890908 35.91444156 -2.625 36.375 C-5 36 -5 36 -6.3671875 34.50390625 C-8.47057986 32.56657118 -9.68339649 32.64230377 -12.5 32.5625 C-16.77764619 32.23717739 -16.77764619 32.23717739 -18.875 30 C-19.24625 29.34 -19.6175 28.68 -20 28 C-20.99 27.67 -21.98 27.34 -23 27 C-23.38133299 25.0085944 -23.71325582 23.00720923 -24 21 C-23.67 20.67 -23.34 20.34 -23 20 C-25.475 19.01 -25.475 19.01 -28 18 C-28.40517987 14.69103108 -28.62269557 12.07576798 -26.91015625 9.1171875 C-22.95357368 4.26853724 -18.55440469 1.06632141 -12.5 -0.75 C-8.11221045 -1.18877896 -4.20999468 -1.40333156 0 0 Z " fill="#406F45" transform="translate(397,58)"/>
<path d="M0 0 C0.66 0 1.32 0 2 0 C2.495 2.475 2.495 2.475 3 5 C2.030625 5.515625 1.06125 6.03125 0.0625 6.5625 C-3.84319348 9.67111318 -3.42020947 11.19602129 -4 16 C-5.91725995 19.42204167 -7.98284101 21.68355054 -11.8125 22.875 C-12.534375 22.91625 -13.25625 22.9575 -14 23 C-14.495 21.515 -14.495 21.515 -15 20 C-14.67 19.34 -14.34 18.68 -14 18 C-14.66 18 -15.32 18 -16 18 C-16.268125 18.556875 -16.53625 19.11375 -16.8125 19.6875 C-19.33975064 24.6089881 -22.08204553 28.08204553 -26 32 C-26.31066406 32.64839844 -26.62132812 33.29679687 -26.94140625 33.96484375 C-28.1343567 36.25830199 -29.36984061 37.38886757 -31.375 39 C-33.42268523 40.66926291 -35.17942911 42.20258125 -36.9375 44.1875 C-39.96801766 46.85068219 -43.18453566 47.72817855 -47 49 C-46.34 49.33 -45.68 49.66 -45 50 C-43.515 49.505 -43.515 49.505 -42 49 C-40.55499799 48.87687003 -39.10577252 48.79947232 -37.65625 48.75390625 C-36.82222656 48.72103516 -35.98820312 48.68816406 -35.12890625 48.65429688 C-33.37643397 48.59310356 -31.62382114 48.53581105 -29.87109375 48.48242188 C-29.03707031 48.44826172 -28.20304687 48.41410156 -27.34375 48.37890625 C-26.58255859 48.3538501 -25.82136719 48.32879395 -25.03710938 48.30297852 C-22.69121653 48.10199945 -22.69121653 48.10199945 -20 46 C-16.8125 45.875 -16.8125 45.875 -14 46 C-14.62719298 52.52280702 -14.62719298 52.52280702 -16.5625 55 C-18.68985273 57.9597951 -18.26708852 60.46107705 -18 64 C-16.41727399 65.58272601 -14.61965997 65.34735747 -12.4375 65.5625 C-11.19806641 65.68818359 -11.19806641 65.68818359 -9.93359375 65.81640625 C-9.29550781 65.87699219 -8.65742188 65.93757813 -8 66 C-8 66.33 -8 66.66 -8 67 C-12.29 67 -16.58 67 -21 67 C-21.66 62.71 -22.32 58.42 -23 54 C-25.76310547 54.03480469 -25.76310547 54.03480469 -28.58203125 54.0703125 C-30.99218346 54.08906855 -33.40234003 54.10726892 -35.8125 54.125 C-37.02744141 54.14175781 -38.24238281 54.15851563 -39.49414062 54.17578125 C-40.65751953 54.18222656 -41.82089844 54.18867188 -43.01953125 54.1953125 C-44.62985229 54.21102295 -44.62985229 54.21102295 -46.27270508 54.22705078 C-49 54 -49 54 -52 52 C-51.41971011 48.08304321 -49.77966299 45.77966299 -47 43 C-43.87555124 41.88412544 -40.97070141 41.13117587 -37.6875 40.6875 C-37.130625 40.460625 -36.57375 40.23375 -36 40 C-35.31754286 38.33973662 -34.65348732 36.67187815 -34 35 C-30.92024554 29.7255818 -27.49973806 25.15360436 -23 21 C-20.58693087 18.65214896 -18.2613219 16.31662239 -16.1171875 13.71875 C-10.70291115 7.21338374 -10.70291115 7.21338374 -6.5 5.9375 C-5.2625 5.9684375 -5.2625 5.9684375 -4 6 C-4 5.34 -4 4.68 -4 4 C-3.34 4 -2.68 4 -2 4 C-1.34 2.68 -0.68 1.36 0 0 Z " fill="#8BA18D" transform="translate(343,187)"/>
<path d="M0 0 C0.99 0.99 1.98 1.98 3 3 C3 3.99 3 4.98 3 6 C4.98 6.99 4.98 6.99 7 8 C7 9.32 7 10.64 7 12 C4.67113342 13.16443329 3.35151789 13.11520829 0.76000977 13.09765625 C-0.11948837 13.09435303 -0.99898651 13.0910498 -1.90513611 13.08764648 C-2.86327713 13.07934814 -3.82141815 13.0710498 -4.80859375 13.0625 C-5.80391617 13.05871338 -6.79923859 13.05492676 -7.82472229 13.05102539 C-12.08184961 13.03475646 -16.33888069 13.00713334 -20.59594727 12.97949219 C-30.9467088 12.91802974 -41.26303709 12.85990751 -51.59765625 13.5 C-59.22063706 13.9716693 -66.7980526 14.05836898 -74.43438721 14.02125549 C-87.41519238 13.96514079 -100.39282787 14.17868095 -113.37182617 14.37231445 C-116.34119824 14.41646018 -119.31058872 14.45804859 -122.2800293 14.49731445 C-126.65159656 14.55517127 -131.02307718 14.61775674 -135.39453125 14.68359375 C-136.09176426 14.69380932 -136.78899727 14.70402489 -137.50735855 14.71455002 C-146.33327994 14.8487653 -155.14295916 15.06440799 -163.93916321 15.84873962 C-167.55405261 16.12963601 -169.92727537 16.02253456 -173 14 C-173 11.69 -173 9.38 -173 7 C-172.34 7 -171.68 7 -171 7 C-170.67 8.98 -170.34 10.96 -170 13 C-168.5308313 12.91697632 -168.5308313 12.91697632 -167.03198242 12.83227539 C-163.24648048 12.61906477 -159.46079106 12.40933614 -155.67504883 12.20043945 C-154.06497333 12.11115761 -152.4549437 12.02104319 -150.8449707 11.92993164 C-127.15150122 10.59076807 -103.46823668 9.86112538 -79.73828125 9.68359375 C-77.3554811 9.66293545 -74.97268388 9.64193734 -72.58988953 9.62062073 C-66.42040428 9.56631347 -60.25089125 9.51651498 -54.08135986 9.46777344 C-47.74497098 9.41687628 -41.40862076 9.3615522 -35.07226562 9.30664062 C-22.71487703 9.20018248 -10.35745438 9.09850469 2 9 C1.01 4.545 1.01 4.545 0 0 Z " fill="#A92C30" transform="translate(468,465)"/>
<path d="M0 0 C2.1385485 2.1385485 2.42655063 3.13275314 3 6 C3.928125 6.2165625 3.928125 6.2165625 4.875 6.4375 C7 7 7 7 9 8 C9 8.66 9 9.32 9 10 C9.66 10 10.32 10 11 10 C11 10.66 11 11.32 11 12 C11.78375 12.309375 12.5675 12.61875 13.375 12.9375 C16 14 16 14 18 15 C18 16.32 18 17.64 18 19 C21.63 19.66 25.26 20.32 29 21 C30 25 30 25 28.875 27.1875 C26.47673088 29.50582682 25.33919228 29.92410927 22 30 C18.25 28.8125 18.25 28.8125 15 27 C14.0625 24.8125 14.0625 24.8125 14 23 C13.05125 23.20625 12.1025 23.4125 11.125 23.625 C10.09375 23.74875 9.0625 23.8725 8 24 C6 22 6 22 5.125 18.625 C4.32127188 14.98267941 4.32127188 14.98267941 1.9375 13.0625 C-1.02311191 9.91088087 -0.79630954 7.27749956 -1 3 C-0.67 2.01 -0.34 1.02 0 0 Z " fill="#3E6541" transform="translate(363,83)"/>
<path d="M0 0 C1.96173028 0.01184521 3.9234814 0.02058439 5.88523865 0.02645874 C11.19719881 0.05113551 16.50781755 0.11915603 21.81925964 0.19505239 C27.3750896 0.26703995 32.93114745 0.29904167 38.48730469 0.33531189 C49.00242875 0.41001634 59.51685601 0.52060288 70.03150749 0.64413017 C82.0046501 0.78304122 93.978019 0.88187782 105.95157433 0.97737324 C130.5762991 1.17466505 155.20031323 1.42220235 179.82421875 1.70288086 C179.49421875 2.36288086 179.16421875 3.02288086 178.82421875 3.70288086 C177.29136042 3.6973501 177.29136042 3.6973501 175.72753525 3.69170761 C150.8825027 3.60297872 126.03749065 3.53721083 101.19233322 3.49563217 C89.17748134 3.47499151 77.162734 3.44684211 65.14794922 3.40112305 C54.67800906 3.36130141 44.20814459 3.335459 33.73813081 3.32652688 C28.19236777 3.32130423 22.64682135 3.30899777 17.10112762 3.27996063 C11.88418308 3.25286543 6.66754495 3.24442395 1.45053673 3.25045013 C-0.46674322 3.24934726 -2.38403314 3.24135842 -4.30125237 3.22605896 C-6.9145323 3.20622314 -9.52664801 3.21091793 -12.13995361 3.22186279 C-12.90260096 3.21021143 -13.6652483 3.19856006 -14.45100617 3.18655562 C-18.05646306 3.22750856 -19.83343173 3.42513311 -22.67802048 5.73294449 C-23.41941206 6.70806299 -23.41941206 6.70806299 -24.17578125 7.70288086 C-21.81184603 10.06681608 -16.38318256 9.68676587 -13.1796875 10.10522461 C-10.17578125 10.70288086 -10.17578125 10.70288086 -8.17578125 12.70288086 C-14.44578125 12.04288086 -20.71578125 11.38288086 -27.17578125 10.70288086 C-27.17578125 7.16732147 -26.73220674 6.57903093 -24.37426758 4.05931091 C-17.57607348 -1.56745502 -8.32945798 -0.15978695 0 0 Z " fill="#A53337" transform="translate(214.17578125,330.297119140625)"/>
<path d="M0 0 C0.66 0 1.32 0 2 0 C2.495 2.475 2.495 2.475 3 5 C2.030625 5.515625 1.06125 6.03125 0.0625 6.5625 C-3.84319348 9.67111318 -3.42020947 11.19602129 -4 16 C-5.91725995 19.42204167 -7.98284101 21.68355054 -11.8125 22.875 C-12.534375 22.91625 -13.25625 22.9575 -14 23 C-14.33 22.01 -14.66 21.02 -15 20 C-14.67 19.34 -14.34 18.68 -14 18 C-14.66 18 -15.32 18 -16 18 C-16.268125 18.556875 -16.53625 19.11375 -16.8125 19.6875 C-17.204375 20.450625 -17.59625 21.21375 -18 22 C-18.4125 22.804375 -18.825 23.60875 -19.25 24.4375 C-21.51024489 27.7471443 -23.72210809 29.6781599 -27 32 C-27.99 31.67 -28.98 31.34 -30 31 C-28.59168351 26.51899299 -26.41176733 24.17373705 -23 21 C-20.58693087 18.65214896 -18.2613219 16.31662239 -16.1171875 13.71875 C-10.70291115 7.21338374 -10.70291115 7.21338374 -6.5 5.9375 C-5.2625 5.9684375 -5.2625 5.9684375 -4 6 C-4 5.34 -4 4.68 -4 4 C-3.34 4 -2.68 4 -2 4 C-1.34 2.68 -0.68 1.36 0 0 Z " fill="#869A8A" transform="translate(343,187)"/>
<path d="M0 0 C6.18065616 1.54516404 8.28086308 4.24938093 11.5625 9.5 C12.036875 10.325 12.51125 11.15 13 12 C13.5775 12.825 14.155 13.65 14.75 14.5 C16.25286152 17.50572303 15.98887846 18.85356854 15 22 C9.55373536 23.19817822 6.74446959 22.97908555 2 20 C-0.39763185 17.60236815 -0.34280586 16.66726502 -0.625 13.375 C-0.69976562 12.55773437 -0.77453125 11.74046875 -0.8515625 10.8984375 C-0.90054687 10.27195313 -0.94953125 9.64546875 -1 9 C0.32 9 1.64 9 3 9 C2.319375 8.443125 1.63875 7.88625 0.9375 7.3125 C0.298125 6.549375 -0.34125 5.78625 -1 5 C-0.75 2.25 -0.75 2.25 0 0 Z " fill="#59755C" transform="translate(451,214)"/>
<path d="M0 0 C2 2 2 2 2.1953125 5.2578125 C2.17210937 6.53398437 2.14890625 7.81015625 2.125 9.125 C2.10695313 10.40632813 2.08890625 11.68765625 2.0703125 13.0078125 C2.04710937 13.99523437 2.02390625 14.98265625 2 16 C2.66 16 3.32 16 4 16 C9.59740304 28.31887472 13.23397435 40.60751837 14.14135742 54.10229492 C14.45568035 57.81722422 15.12997973 60.54397967 17.046875 63.69140625 C18.96117217 66.93422565 19.47471428 68.28589296 19.25 71.9375 C19.19585937 73.09572266 19.19585937 73.09572266 19.140625 74.27734375 C19.09421875 74.84582031 19.0478125 75.41429687 19 76 C17.02 76 15.04 76 13 76 C13.66 75.01 14.32 74.02 15 73 C14.74464846 69.93578151 13.90023834 67.79727577 12.5390625 65.03125 C10.41140353 60.12590308 10.10572963 55.02171896 9.5625 49.75 C8.46848282 40.34145224 6.71113124 32.36201512 2.41796875 23.87109375 C0.43569093 19.2341355 0.43798968 14.54264772 0.3125 9.5625 C0.27833984 8.64017578 0.24417969 7.71785156 0.20898438 6.76757812 C0.12717006 4.51184049 0.05780878 2.25645881 0 0 Z " fill="#869D89" transform="translate(385,254)"/>
<path d="M0 0 C0.99 0.99 1.98 1.98 3 3 C3 3.99 3 4.98 3 6 C4.32 6.66 5.64 7.32 7 8 C7 9.32 7 10.64 7 12 C4.67113342 13.16443329 3.35151789 13.11520829 0.76000977 13.09765625 C-0.11948837 13.09435303 -0.99898651 13.0910498 -1.90513611 13.08764648 C-2.86327713 13.07934814 -3.82141815 13.0710498 -4.80859375 13.0625 C-5.80391617 13.05871338 -6.79923859 13.05492676 -7.82472229 13.05102539 C-12.08184961 13.03475646 -16.33888069 13.00713334 -20.59594727 12.97949219 C-23.70849607 12.96100999 -26.82100759 12.94780546 -29.93359375 12.9375 C-30.95117767 12.93282715 -31.9687616 12.9281543 -33.0171814 12.92333984 C-40.47765212 12.91975527 -47.88775529 13.22774463 -55.31846619 13.90795898 C-57.51196289 14.07421875 -57.51196289 14.07421875 -61 14 C-61.66 13.01 -62.32 12.02 -63 11 C-51.61511582 10.17168799 -40.22033434 9.77644612 -28.8125 9.4375 C-27.72754242 9.40428146 -27.72754242 9.40428146 -26.6206665 9.37039185 C-17.07667377 9.08105323 -7.54922096 8.94057089 2 9 C1.34 6.03 0.68 3.06 0 0 Z " fill="#946561" transform="translate(468,465)"/>
<path d="M0 0 C0.66 0 1.32 0 2 0 C2.33 1.98 2.66 3.96 3 6 C3.64259766 5.9292627 4.28519531 5.85852539 4.94726562 5.78564453 C15.97398198 4.75029773 27.00276388 4.84894852 38.06835938 4.86962891 C41.51957504 4.87503064 44.97066307 4.86963617 48.421875 4.86328125 C50.62500029 4.86394135 52.82812549 4.86522109 55.03125 4.8671875 C56.57190125 4.86415115 56.57190125 4.86415115 58.14367676 4.86105347 C59.10237671 4.86420563 60.06107666 4.86735779 61.04882812 4.87060547 C61.88675903 4.87140106 62.72468994 4.87219666 63.5880127 4.87301636 C66.13925352 5.00733127 68.51012024 5.44086972 71 6 C71 6.33 71 6.66 71 7 C70.42609528 7.01030746 69.85219055 7.02061493 69.26089478 7.03123474 C63.19175398 7.14090538 57.12271516 7.25533522 51.05371094 7.37231445 C48.80015228 7.41515838 46.54657155 7.45685924 44.29296875 7.49731445 C41.02076403 7.55626654 37.74865708 7.61882567 34.4765625 7.68359375 C33.40891663 7.70424896 32.34127075 7.72490417 31.24127197 7.7461853 C23.96093554 7.905943 16.70405997 8.22699042 9.44741821 8.84873962 C5.71925432 9.12112757 3.16093448 9.12097994 0 7 C0 4.69 0 2.38 0 0 Z " fill="#7C3D34" transform="translate(295,472)"/>
<path d="M0 0 C19.39263512 -0.04666981 38.78525888 -0.08196417 58.17793846 -0.10362434 C67.18179575 -0.11394775 76.1856182 -0.12802834 85.18945312 -0.15087891 C93.03493988 -0.17078029 100.8804014 -0.18370869 108.72591269 -0.18817699 C112.88208934 -0.1907899 117.03819381 -0.19695332 121.19434738 -0.21146011 C125.10291511 -0.22499273 129.01138063 -0.22923145 132.91996956 -0.22621536 C134.35753624 -0.22676747 135.79510618 -0.2307706 137.23265266 -0.23841095 C139.18936848 -0.24830411 141.14613862 -0.24479068 143.10287476 -0.24050903 C144.19980841 -0.24235262 145.29674206 -0.24419621 146.42691612 -0.24609566 C149 0 149 0 151 2 C149.0625 2.5625 149.0625 2.5625 147 3 C146.67 2.67 146.34 2.34 146 2 C144.11473944 1.8912193 142.22538321 1.85310855 140.33702087 1.84178162 C139.10717972 1.8319928 137.87733856 1.82220398 136.61022949 1.81211853 C135.23486367 1.80621358 133.85949744 1.80040318 132.48413086 1.79467773 C131.0455751 1.78510455 129.60702219 1.77509481 128.16847229 1.76467896 C124.25131921 1.73756312 120.334154 1.71658985 116.41695857 1.69667697 C112.32763741 1.67485846 108.23835392 1.64744961 104.14906311 1.62062073 C96.40010335 1.57063774 88.65112273 1.52571979 80.90212208 1.48259836 C72.08241116 1.43327379 63.26273802 1.37833799 54.44306362 1.32291877 C36.2954108 1.20901271 18.14772236 1.10219254 0 1 C0 0.67 0 0.34 0 0 Z " fill="#6D9571" transform="translate(197,183)"/>
<path d="M0 0 C1.18637306 -0.00043808 1.18637306 -0.00043808 2.39671326 -0.00088501 C4.99391908 0.00050105 7.59083297 0.01602791 10.18798828 0.03173828 C11.99545129 0.03547099 13.80291632 0.03831674 15.61038208 0.04031372 C20.35491577 0.04792988 25.09932595 0.06756098 29.84381104 0.08972168 C34.69029062 0.11022364 39.53679028 0.11932473 44.38330078 0.12939453 C53.88335488 0.15080883 63.38331754 0.18492035 72.88330078 0.22705078 C72.88330078 0.55705078 72.88330078 0.88705078 72.88330078 1.22705078 C68.1461062 1.99333457 63.6304534 2.34195949 58.83398438 2.30883789 C58.16799728 2.30577133 57.50201019 2.30270477 56.81584167 2.29954529 C55.38304789 2.29244187 53.95026382 2.28307975 52.51749802 2.27165031 C50.24722393 2.25412815 47.97702143 2.24392017 45.70669556 2.23573303 C39.25638069 2.21138857 32.80616325 2.17564314 26.35595703 2.13110352 C22.39920303 2.10428902 18.44250373 2.08726958 14.48567581 2.07623482 C12.98260083 2.07004045 11.47953639 2.06005447 9.97651291 2.04615593 C7.87554741 2.02688887 5.77487022 2.02003721 3.67382812 2.01586914 C1.88348648 2.004683 1.88348648 2.004683 0.05697632 1.99327087 C-3.12714596 2.22782031 -5.24491536 2.88693217 -8.11669922 4.22705078 C-9.25107422 4.66017578 -10.38544922 5.09330078 -11.55419922 5.53955078 C-14.37686705 6.87660396 -15.98328682 7.81561707 -18.24169922 9.78955078 C-20.91723259 12.05793777 -22.87670827 13.05705405 -26.11669922 14.22705078 C-26.77669922 14.88705078 -27.43669922 15.54705078 -28.11669922 16.22705078 C-29.10669922 16.22705078 -30.09669922 16.22705078 -31.11669922 16.22705078 C-30.11669922 13.22705078 -30.11669922 13.22705078 -28.29638672 12.05126953 C-27.53583984 11.67615234 -26.77529297 11.30103516 -25.99169922 10.91455078 C-22.09320047 8.87571626 -19.053788 6.63055633 -15.91748047 3.55908203 C-11.14186093 0.02657387 -5.71807428 -0.05587656 0 0 Z " fill="#416544" transform="translate(221.11669921875,35.77294921875)"/>
<path d="M0 0 C0.66 0.33 1.32 0.66 2 1 C2 1.66 2 2.32 2 3 C3.32 3.33 4.64 3.66 6 4 C6.06058594 5.02480469 6.12117188 6.04960937 6.18359375 7.10546875 C6.26805026 8.46615695 6.35269567 9.82683343 6.4375 11.1875 C6.47681641 11.86103516 6.51613281 12.53457031 6.55664062 13.22851562 C6.7426126 16.16115068 6.98500168 18.93636808 7.66015625 21.80078125 C8 24 8 24 6 27 C4.07130401 23.01402828 3.60442624 19.33946151 3.24609375 14.98828125 C3.10355076 12.9288014 3.10355076 12.9288014 2 11 C0.33499557 10.65846063 -1.33178677 10.32550502 -3 10 C-3.66 9.34 -4.32 8.68 -5 8 C-5 6.68 -5 5.36 -5 4 C-3.35 4 -1.7 4 0 4 C0 2.68 0 1.36 0 0 Z " fill="#943032" transform="translate(459,439)"/>
<path d="M0 0 C1.41623216 -0.05447047 2.83308191 -0.09300508 4.25 -0.125 C5.03890625 -0.14820312 5.8278125 -0.17140625 6.640625 -0.1953125 C9.20731941 0.0171622 10.7916067 0.71345895 13 2 C12.38722388 4.96175123 11.74627478 6.38058783 10 9 C6.55137791 10.37944884 4.48686703 9.97174381 1.1875 8.5625 C0.135625 8.046875 -0.91625 7.53125 -2 7 C-2 5.35 -2 3.7 -2 2 C-1.34 2 -0.68 2 0 2 C0 1.34 0 0.68 0 0 Z " fill="#45734A" transform="translate(380,103)"/>
<path d="M0 0 C1.32 0.66 2.64 1.32 4 2 C3.01 2.495 3.01 2.495 2 3 C5.85756507 5.15305957 8.55129785 6.39253254 13 6 C13 5.01 13 4.02 13 3 C13.66 3 14.32 3 15 3 C15 3.66 15 4.32 15 5 C15.66 5 16.32 5 17 5 C17.33 6.32 17.66 7.64 18 9 C14.8438103 11.4657732 13.25262873 12.00414145 9.1875 11.9375 C4.69494469 11.18446216 0.92415906 9.24386755 -3 7 C-2.01 6.67 -1.02 6.34 0 6 C-0.2784375 4.7934375 -0.2784375 4.7934375 -0.5625 3.5625 C-0.706875 2.716875 -0.85125 1.87125 -1 1 C-0.67 0.67 -0.34 0.34 0 0 Z " fill="#4C6F51" transform="translate(393,183)"/>
<path d="M0 0 C4.1970092 -0.35281338 6.06522073 0.35814568 9.3125 3 C10.00988281 3.556875 10.70726562 4.11375 11.42578125 4.6875 C11.94527344 5.120625 12.46476562 5.55375 13 6 C12.75 8.375 12.75 8.375 12 11 C10.1875 12.375 10.1875 12.375 8 13 C5.75 12.625 5.75 12.625 4 12 C4 10.35 4 8.7 4 7 C3.34 7 2.68 7 2 7 C0.3125 5.75 0.3125 5.75 -1 4 C-0.6875 1.8125 -0.6875 1.8125 0 0 Z " fill="#456345" transform="translate(370,108)"/>
<path d="M0 0 C2.86724686 0.57344937 3.8614515 0.8614515 6 3 C6.32627591 9.74303544 6.32627591 9.74303544 5.5234375 12.8359375 C4.80794974 15.79399882 4.6498552 18.71635424 4.4375 21.75 C4.35371094 22.92046875 4.26992188 24.0909375 4.18359375 25.296875 C4.12300781 26.18890625 4.06242187 27.0809375 4 28 C3.34 28 2.68 28 2 28 C1.67 20.74 1.34 13.48 1 6 C0.01 6.495 0.01 6.495 -1 7 C-0.67 4.69 -0.34 2.38 0 0 Z " fill="#4A6C4D" transform="translate(385,242)"/>
<path d="M0 0 C0.99 0.33 1.98 0.66 3 1 C3 2.32 3 3.64 3 5 C3.99 5.33 4.98 5.66 6 6 C10.07586047 9.16230553 11.22297357 12.83591316 12.375 17.6875 C12.54999023 18.39777344 12.72498047 19.10804688 12.90527344 19.83984375 C14.15828368 25.45660948 13.95807707 29.5173842 12 35 C10.23749323 31.75836989 9.9002462 29.69089056 10 26 C9.67 25.67 9.34 25.34 9 25 C8.7022682 23.2961487 8.43700796 21.586578 8.1875 19.875 C7.28891871 14.69809884 5.8800347 11.36368894 3 7 C0 2.17857143 0 2.17857143 0 0 Z " fill="#74302E" transform="translate(259,378)"/>
<path d="M0 0 C-0.40293386 5.64107398 -2.05724462 8.14685269 -6 12 C-8.8125 12.875 -8.8125 12.875 -11 13 C-12 10 -12 10 -11.328125 8.02734375 C-10.97234375 7.33769531 -10.6165625 6.64804688 -10.25 5.9375 C-9.90453125 5.24527344 -9.5590625 4.55304688 -9.203125 3.83984375 C-6.71833026 0.040044 -4.21771666 -0.22798468 0 0 Z " fill="#E7ECE6" transform="translate(340,197)"/>
<path d="M0 0 C1.33841672 0.31229724 2.67139075 0.64830932 4 1 C4.99 1 5.98 1 7 1 C9.125 6.625 9.125 6.625 8 10 C1.375 11.25 1.375 11.25 -2 9 C-1.67 7.35 -1.34 5.7 -1 4 C-0.01 4 0.98 4 2 4 C2 3.34 2 2.68 2 2 C1.01 1.67 0.02 1.34 -1 1 C-0.67 0.67 -0.34 0.34 0 0 Z " fill="#486A4D" transform="translate(458,226)"/>
<path d="M0 0 C0.66 0 1.32 0 2 0 C-1.01940522 7.03421876 -7.50805932 14.08225373 -14.25 17.6875 C-17.81046619 18.93366317 -20.27029919 19.37297008 -24 19 C-21.44514517 15.87739966 -18.74891123 15.24963708 -15 14 C-13.98131338 13.01904252 -12.97648017 12.02297922 -12 11 C-11.01 11 -10.02 11 -9 11 C-8.62875 9.7934375 -8.62875 9.7934375 -8.25 8.5625 C-7.8375 7.716875 -7.425 6.87125 -7 6 C-5.67696283 5.6278958 -4.34262065 5.29369827 -3 5 C-1.77472052 3.04978917 -1.77472052 3.04978917 -1 1 C-0.67 0.67 -0.34 0.34 0 0 Z " fill="#476043" transform="translate(443,162)"/>
<path d="M0 0 C-2 2 -2 2 -3.93359375 2.16015625 C-4.75988281 2.12792969 -5.58617187 2.09570312 -6.4375 2.0625 C-10.27921399 1.97029886 -14.05247503 2.04471685 -17.8828125 2.3203125 C-18.73560791 2.37952881 -19.58840332 2.43874512 -20.46704102 2.49975586 C-22.18717385 2.62418274 -23.90650517 2.76027986 -25.62475586 2.90844727 C-28.03515625 3.07421875 -28.03515625 3.07421875 -32 3 C-32.66 2.01 -33.32 1.02 -34 0 C-7.70020367 -1.74501018 -7.70020367 -1.74501018 0 0 Z " fill="#8E484A" transform="translate(439,476)"/>
<path d="M0 0 C0.78375 0.04125 1.5675 0.0825 2.375 0.125 C6.43653846 6.40192308 6.43653846 6.40192308 6.125 10.0625 C5.8775 10.743125 5.63 11.42375 5.375 12.125 C5.045 11.465 4.715 10.805 4.375 10.125 C3.715 9.795 3.055 9.465 2.375 9.125 C0.375 8.125 0.375 8.125 -0.625 6.125 C-1.285 6.785 -1.945 7.445 -2.625 8.125 C-3.285 7.795 -3.945 7.465 -4.625 7.125 C-4.75 4.75 -4.75 4.75 -4.625 2.125 C-2.625 0.125 -2.625 0.125 0 0 Z " fill="#607D61" transform="translate(362.625,231.875)"/>
<path d="M0 0 C0 0.33 0 0.66 0 1 C-7.92 1.495 -7.92 1.495 -16 2 C-16 2.33 -16 2.66 -16 3 C-29.365 3.495 -29.365 3.495 -43 4 C-39.56326862 1.70884574 -36.7433553 1.32564628 -32.75 0.875 C-32.02433838 0.79008301 -31.29867676 0.70516602 -30.55102539 0.61767578 C-20.4028413 -0.43297467 -10.18717784 -0.17557114 0 0 Z " fill="#773632" transform="translate(422,475)"/>
<path d="M0 0 C0.66 0.33 1.32 0.66 2 1 C-0.20732925 3.39593017 -2.44812093 4.92153935 -5.25 6.5625 C-9.95802863 9.59894843 -12.56949215 13.20287499 -15.4921875 17.92578125 C-17 20 -17 20 -20 21 C-18.66915927 14.93728113 -15.36868383 12.05527825 -11 8 C-9.7315625 6.63875 -9.7315625 6.63875 -8.4375 5.25 C-5.77871383 2.79573584 -3.35406286 1.34162514 0 0 Z " fill="#435F45" transform="translate(175,54)"/>
<path d="M0 0 C3.3457414 3.3457414 2.84006184 7.93642377 3.25 12.5 C3.353125 13.47582031 3.45625 14.45164062 3.5625 15.45703125 C3.65015625 16.38902344 3.7378125 17.32101562 3.828125 18.28125 C3.9504248 19.56612305 3.9504248 19.56612305 4.07519531 20.87695312 C4 23 4 23 2 25 C-1.18648099 17.29933761 -1.57301313 10.29767096 -1 2 C-0.67 1.34 -0.34 0.68 0 0 Z " fill="#732D2E" transform="translate(269,414)"/>
<path d="M0 0 C6.43841732 0.427079 12.35691883 0.88419969 17.55859375 5.01953125 C19.62109375 8.08203125 19.62109375 8.08203125 20.55859375 11.01953125 C20.22859375 12.00953125 19.89859375 12.99953125 19.55859375 14.01953125 C19.22859375 12.69953125 18.89859375 11.37953125 18.55859375 10.01953125 C17.89859375 10.01953125 17.23859375 10.01953125 16.55859375 10.01953125 C16.22859375 8.69953125 15.89859375 7.37953125 15.55859375 6.01953125 C14.35460937 5.82617188 13.150625 5.6328125 11.91015625 5.43359375 C10.33456498 5.1709952 8.7590479 4.90795124 7.18359375 4.64453125 C6.38953125 4.51820313 5.59546875 4.391875 4.77734375 4.26171875 C4.01679688 4.1328125 3.25625 4.00390625 2.47265625 3.87109375 C1.77092285 3.75588379 1.06918945 3.64067383 0.34619141 3.52197266 C-1.44140625 3.01953125 -1.44140625 3.01953125 -3.44140625 1.01953125 C-2.44140625 0.01953125 -2.44140625 0.01953125 0 0 Z " fill="#803F3B" transform="translate(225.44140625,342.98046875)"/>
<path d="M0 0 C1.485 0.99 1.485 0.99 3 2 C4.71444889 2.43738696 6.44667784 2.80848688 8.1875 3.125 C9.08855469 3.29257812 9.98960937 3.46015625 10.91796875 3.6328125 C11.60503906 3.75398438 12.29210937 3.87515625 13 4 C13.36923077 9.41538462 13.36923077 9.41538462 11.5 12.375 C11.005 12.91125 10.51 13.4475 10 14 C9.67 11.69 9.34 9.38 9 7 C6.36 6.34 3.72 5.68 1 5 C0.67 3.35 0.34 1.7 0 0 Z " fill="#903A38" transform="translate(452,412)"/>
<path d="M0 0 C1.32 0 2.64 0 4 0 C3.91638941 2.84276007 3.47005538 4.52758254 1.4453125 6.5625 C0.2114315 7.58646763 -1.03965276 8.59012844 -2.30859375 9.5703125 C-4.25419066 11.08080282 -4.25419066 11.08080282 -6 14 C-6.99 14 -7.98 14 -9 14 C-8.34 12.35 -7.68 10.7 -7 9 C-6.34 9 -5.68 9 -5 9 C-4.5978125 7.88625 -4.5978125 7.88625 -4.1875 6.75 C-3.02940141 4.06808747 -2.02510014 2.10298861 0 0 Z " fill="#6D8571" transform="translate(312,218)"/>
<path d="M0 0 C1.50626953 0.00676758 1.50626953 0.00676758 3.04296875 0.01367188 C5.48704471 0.02531033 7.9309882 0.0416576 10.375 0.0625 C10.375 0.3925 10.375 0.7225 10.375 1.0625 C9.61574219 1.12308594 8.85648437 1.18367188 8.07421875 1.24609375 C7.08035156 1.32988281 6.08648437 1.41367187 5.0625 1.5 C4.07636719 1.58121094 3.09023438 1.66242188 2.07421875 1.74609375 C-0.71875599 1.98062559 -0.71875599 1.98062559 -3.625 3.0625 C-5.74827356 3.15773918 -7.87459711 3.19236362 -10 3.1875 C-11.68222656 3.19136719 -11.68222656 3.19136719 -13.3984375 3.1953125 C-16.26764622 3.07720948 -18.83708229 2.72032328 -21.625 2.0625 C-21.625 1.7325 -21.625 1.4025 -21.625 1.0625 C-14.39068401 0.18179203 -7.2831629 -0.06320502 0 0 Z " fill="#A25457" transform="translate(382.625,475.9375)"/>
<path d="M0 0 C0 0.66 0 1.32 0 2 C-5.11236781 4.07434732 -9.46330893 4.24424065 -14.875 4.125 C-16.050625 4.11146484 -16.050625 4.11146484 -17.25 4.09765625 C-19.16680055 4.07428063 -21.08344191 4.03841653 -23 4 C-22.67 3.01 -22.34 2.02 -22 1 C-18.89590179 0.83204189 -15.79171114 0.66585677 -12.6875 0.5 C-11.80642578 0.45230469 -10.92535156 0.40460938 -10.01757812 0.35546875 C-8.74624023 0.28779297 -8.74624023 0.28779297 -7.44921875 0.21875 C-6.66893311 0.17685547 -5.88864746 0.13496094 -5.0847168 0.09179688 C-3.39117604 0.01722476 -1.69518179 0 0 0 Z " fill="#57785C" transform="translate(323,235)"/>
<path d="M0 0 C5.13858696 6.29891304 5.13858696 6.29891304 5.0625 11.625 C5.05347656 12.44226563 5.04445313 13.25953125 5.03515625 14.1015625 C5.02355469 14.72804688 5.01195312 15.35453125 5 16 C3.02 16 1.04 16 -1 16 C-0.34 15.01 0.32 14.02 1 13 C0.71281674 11.3247643 0.36871088 9.65919896 0 8 C-0.09441951 5.32643702 -0.04536393 2.67647189 0 0 Z " fill="#748D78" transform="translate(399,314)"/>
<path d="M0 0 C0.66 0 1.32 0 2 0 C2.33 1.98 2.66 3.96 3 6 C8.61 6 14.22 6 20 6 C20 6.66 20 7.32 20 8 C17.41718164 8.22224251 14.83477813 8.42823488 12.25 8.625 C11.52039063 8.68945312 10.79078125 8.75390625 10.0390625 8.8203125 C6.14088264 9.10381649 3.29354678 9.27081383 0 7 C0 4.69 0 2.38 0 0 Z " fill="#834844" transform="translate(295,472)"/>
<path d="M0 0 C0.66 0 1.32 0 2 0 C2.33 1.32 2.66 2.64 3 4 C3.598125 3.814375 4.19625 3.62875 4.8125 3.4375 C7 3 7 3 10 4 C10.33 4.99 10.66 5.98 11 7 C9.68 6.67 8.36 6.34 7 6 C6.67 7.65 6.34 9.3 6 11 C3.17621961 9.96461386 2.1756855 9.33380245 0.75 6.625 C0 4 0 4 0 0 Z " fill="#6D826E" transform="translate(450,224)"/>
<path d="M0 0 C0.66 0 1.32 0 2 0 C2.33 1.65 2.66 3.3 3 5 C-1.95 7.97 -1.95 7.97 -7 11 C-7.99 10.34 -8.98 9.68 -10 9 C-6.25 6 -6.25 6 -4 6 C-4 5.34 -4 4.68 -4 4 C-3.34 4 -2.68 4 -2 4 C-1.34 2.68 -0.68 1.36 0 0 Z " fill="#9DAF9F" transform="translate(343,187)"/>
<path d="M0 0 C0.66 0.33 1.32 0.66 2 1 C-1.465 3.97 -1.465 3.97 -5 7 C-2.63606478 9.36393522 2.79259869 8.98388501 5.99609375 9.40234375 C9 10 9 10 11 12 C4.73 11.34 -1.54 10.68 -8 10 C-8 7 -8 7 -6.25 5.17578125 C-5.5075 4.56089844 -4.765 3.94601562 -4 3.3125 C-3.2575 2.68988281 -2.515 2.06726563 -1.75 1.42578125 C-1.1725 0.95527344 -0.595 0.48476563 0 0 Z " fill="#692C2C" transform="translate(195,331)"/>
<path d="M0 0 C2 2 2 2 2.1953125 5.2578125 C2.17210937 6.53398437 2.14890625 7.81015625 2.125 9.125 C2.10695313 10.40632813 2.08890625 11.68765625 2.0703125 13.0078125 C2.04710937 13.99523437 2.02390625 14.98265625 2 16 C2.66 16 3.32 16 4 16 C6.21854707 20.62197306 7.38281159 23.76824163 7 29 C6.67 27.68 6.34 26.36 6 25 C5.34 25 4.68 25 4 25 C0.12777707 20.45850397 0.45274103 15.3572445 0.3125 9.6875 C0.27833984 8.75615234 0.24417969 7.82480469 0.20898438 6.86523438 C0.12684059 4.57694328 0.05758338 2.28901896 0 0 Z " fill="#6E8A73" transform="translate(385,254)"/>
<path d="M0 0 C0 0.99 0 1.98 0 3 C-1.216875 3.37125 -2.43375 3.7425 -3.6875 4.125 C-8.27002762 5.80390835 -10.10218706 8.16465934 -13 12 C-13.66 12 -14.32 12 -15 12 C-15 13.98 -15 15.96 -15 18 C-15.33 18 -15.66 18 -16 18 C-16.40517987 14.69103108 -16.62269557 12.07576798 -14.91015625 9.1171875 C-11.09313501 4.43956466 -6.31821303 0 0 0 Z " fill="#466643" transform="translate(385,58)"/>
<path d="M0 0 C1.6065676 0.25620684 3.2102483 0.53055871 4.8125 0.8125 C6.15248047 1.03873047 6.15248047 1.03873047 7.51953125 1.26953125 C10.25752509 2.0758381 11.31645783 2.72164167 13 5 C14.05943257 7.93008778 14.10803311 10.6537483 14.0625 13.75 C14.05347656 14.54921875 14.04445313 15.3484375 14.03515625 16.171875 C14.02355469 16.77515625 14.01195312 17.3784375 14 18 C13.34 17.67 12.68 17.34 12 17 C11.62109375 15.0390625 11.62109375 15.0390625 11.4375 12.625 C11.21246912 9.80522535 10.90445432 7.71336297 10 5 C6.67908998 3.29466783 4.81507216 3 1 3 C0.67 2.01 0.34 1.02 0 0 Z " fill="#E1ECE3" transform="translate(372,249)"/>
<path d="M0 0 C1.98 0.66 3.96 1.32 6 2 C7.125 6.75 7.125 6.75 6 9 C3.50638429 7.79618552 1.31856917 6.54571278 -1 5 C-0.67 3.35 -0.34 1.7 0 0 Z " fill="#627C64" transform="translate(451,214)"/>
<path d="M0 0 C0.66 0.33 1.32 0.66 2 1 C1.67 2.32 1.34 3.64 1 5 C0.34 5 -0.32 5 -1 5 C-1.061875 5.78375 -1.12375 6.5675 -1.1875 7.375 C-2 10 -2 10 -4.375 11.3125 C-7 12 -7 12 -10 12 C-10 10 -10 10 -7.8125 7.6875 C-6.884375 6.800625 -5.95625 5.91375 -5 5 C-4.071875 4.071875 -3.14375 3.14375 -2.1875 2.1875 C-1.1046875 1.1046875 -1.1046875 1.1046875 0 0 Z " fill="#91A392" transform="translate(333,194)"/>
<path d="M0 0 C1.32 0.66 2.64 1.32 4 2 C3.01 2.495 3.01 2.495 2 3 C3.98 3.99 5.96 4.98 8 6 C7 9 7 9 5.3125 9.875 C1.96831319 10.05576685 -0.14198685 8.62387111 -3 7 C-2.01 6.67 -1.02 6.34 0 6 C-0.2784375 4.7934375 -0.2784375 4.7934375 -0.5625 3.5625 C-0.706875 2.716875 -0.85125 1.87125 -1 1 C-0.67 0.67 -0.34 0.34 0 0 Z " fill="#48654A" transform="translate(393,183)"/>
<path d="M0 0 C1.98 0 3.96 0 6 0 C5.50769231 6.52307692 5.50769231 6.52307692 2.9375 8.9375 C2.298125 9.288125 1.65875 9.63875 1 10 C0.67 9.01 0.34 8.02 0 7 C-0.66 6.67 -1.32 6.34 -2 6 C-1.34 5.67 -0.68 5.34 0 5 C0 3.35 0 1.7 0 0 Z " fill="#557158" transform="translate(323,233)"/>
<path d="M0 0 C0.33 0.66 0.66 1.32 1 2 C3.02463255 2.65213292 3.02463255 2.65213292 5 3 C0.98452696 4.89849757 -2.2625401 5.27018226 -6.6875 5.25 C-7.82574219 5.25515625 -8.96398437 5.2603125 -10.13671875 5.265625 C-13 5 -13 5 -15 3 C-14.00097656 2.86722656 -13.00195312 2.73445312 -11.97265625 2.59765625 C-10.68230469 2.42105469 -9.39195312 2.24445313 -8.0625 2.0625 C-6.77472656 1.88847656 -5.48695313 1.71445313 -4.16015625 1.53515625 C-1.14533687 1.33837577 -1.14533687 1.33837577 0 0 Z " fill="#6E8670" transform="translate(339,248)"/>
<path d="M0 0 C2.86724686 0.57344937 3.8614515 0.8614515 6 3 C6.125 5.625 6.125 5.625 6 8 C4.68 8 3.36 8 2 8 C1.67 8.66 1.34 9.32 1 10 C1 8.68 1 7.36 1 6 C0.01 6.495 0.01 6.495 -1 7 C-0.67 4.69 -0.34 2.38 0 0 Z " fill="#415E41" transform="translate(385,242)"/>
<path d="M0 0 C0.99 0.33 1.98 0.66 3 1 C2.67 1.66 2.34 2.32 2 3 C1.34 3 0.68 3 0 3 C0 3.99 0 4.98 0 6 C0.99 5.67 1.98 5.34 3 5 C3.33 5.33 3.66 5.66 4 6 C6.32817964 6.36760731 8.6618385 6.70241581 11 7 C8 9 8 9 5.125 8.75 C2.25791346 8.06189923 -0.30673466 7.1882053 -3 6 C-3 4.68 -3 3.36 -3 2 C-2.01 1.34 -1.02 0.68 0 0 Z " fill="#405941" transform="translate(373,172)"/>
<path d="M0 0 C0.99 0 1.98 0 3 0 C2.03585637 2.59577131 1.05668694 4.91127261 -0.4375 7.25 C-2.55887066 10.98361237 -3.74298698 14.90802145 -5 19 C-6.54475764 13.98787269 -5.24657298 9.51684506 -2.97265625 4.92578125 C-2.02300439 3.25966607 -1.01640732 1.62625171 0 0 Z " fill="#3E5E41" transform="translate(154,77)"/>
<path d="M0 0 C2.1640625 -0.29296875 2.1640625 -0.29296875 4.625 -0.1875 C5.44226563 -0.16042969 6.25953125 -0.13335937 7.1015625 -0.10546875 C8.04128906 -0.05326172 8.04128906 -0.05326172 9 0 C6.66785852 1.20628008 4.50357861 2.1654738 2 3 C1.67 3.66 1.34 4.32 1 5 C2.32 4.67 3.64 4.34 5 4 C5.33 4.99 5.66 5.98 6 7 C3.69 7 1.38 7 -1 7 C-1.625 5.1875 -1.625 5.1875 -2 3 C-1.34 2.01 -0.68 1.02 0 0 Z " fill="#435F46" transform="translate(390,95)"/>
<path d="M0 0 C0.66 0.33 1.32 0.66 2 1 C2 1.66 2 2.32 2 3 C3.32 3.33 4.64 3.66 6 4 C6 5.98 6 7.96 6 10 C5.34 10 4.68 10 4 10 C4 8.35 4 6.7 4 5 C3.21625 5.185625 2.4325 5.37125 1.625 5.5625 C-1 6 -1 6 -3 5 C-3 5.99 -3 6.98 -3 8 C-3.66 8 -4.32 8 -5 8 C-5 6.68 -5 5.36 -5 4 C-3.35 4 -1.7 4 0 4 C0 2.68 0 1.36 0 0 Z " fill="#99736A" transform="translate(459,439)"/>
<path d="M0 0 C2.39674267 0.11456128 4.79181218 0.24128719 7.1875 0.375 C8.19780273 0.42140625 8.19780273 0.42140625 9.22851562 0.46875 C13.19678975 0.70103922 16.40729879 1.28387476 20 3 C18.02 3.99 18.02 3.99 16 5 C15.67 4.67 15.34 4.34 15 4 C13.42067669 3.81574561 11.83587444 3.67745244 10.25 3.5625 C6.49292106 3.22877666 3.41498302 2.70749151 0 1 C0 0.67 0 0.34 0 0 Z " fill="#A22F31" transform="translate(201,340)"/>
<path d="M0 0 C0 3.33333333 0 6.66666667 0 10 C-3.875 9.125 -3.875 9.125 -5 8 C-5.04080783 6.00041636 -5.04254356 3.99954746 -5 2 C-3.35 1.34 -1.7 0.68 0 0 Z " fill="#4F6C50" transform="translate(383,119)"/>
<path d="M0 0 C0.33 0 0.66 0 1 0 C1.38971999 2.10149011 1.76131477 4.2063482 2.125 6.3125 C2.33382813 7.48425781 2.54265625 8.65601563 2.7578125 9.86328125 C3 13 3 13 1 16 C-1.54677703 11.22479306 -1.42040613 6.27951886 -1 1 C-0.67 0.67 -0.34 0.34 0 0 Z " fill="#904F4F" transform="translate(464,450)"/>
<path d="M0 0 C0.33 2.64 0.66 5.28 1 8 C-0.5 6.625 -0.5 6.625 -2 5 C-2 4.34 -2 3.68 -2 3 C-2.94875 3.04125 -3.8975 3.0825 -4.875 3.125 C-8 3 -8 3 -10 1 C-6.78548731 -0.60725635 -3.56387464 -0.05748185 0 0 Z " fill="#973A38" transform="translate(404,330)"/>
<path d="M0 0 C2.475 0.495 2.475 0.495 5 1 C5.33 3.31 5.66 5.62 6 8 C5.01 8.495 5.01 8.495 4 9 C4 8.34 4 7.68 4 7 C2.68 6.34 1.36 5.68 0 5 C0 3.35 0 1.7 0 0 Z " fill="#6A846F" transform="translate(363,235)"/>
<path d="M0 0 C8.25 0.33 16.5 0.66 25 1 C25 1.33 25 1.66 25 2 C21.87504511 2.16751968 18.75002908 2.33387058 15.625 2.5 C14.73554688 2.54769531 13.84609375 2.59539062 12.9296875 2.64453125 C12.07890625 2.68964844 11.228125 2.73476563 10.3515625 2.78125 C9.56604004 2.82314453 8.78051758 2.86503906 7.97119141 2.90820312 C6.64854076 2.96979795 5.32408408 3 4 3 C4 2.34 4 1.68 4 1 C2.68 0.67 1.36 0.34 0 0 Z " fill="#8A2E30" transform="translate(311,477)"/>
<path d="M0 0 C2.84906806 5.33596646 4.59136961 10.59228087 3.125 16.5625 C2.75375 17.366875 2.3825 18.17125 2 19 C-0.44989101 15.25764681 -0.23086143 11.55774581 -0.125 7.25 C-0.11597656 6.55261719 -0.10695313 5.85523438 -0.09765625 5.13671875 C-0.07419888 3.42433042 -0.03833104 1.71211996 0 0 Z " fill="#903535" transform="translate(269,394)"/>
<path d="M0 0 C0.66 0.99 1.32 1.98 2 3 C-0.86982074 5.33837246 -3.57367409 6.64750293 -7 8 C-7.66 8.66 -8.32 9.32 -9 10 C-9.99 10 -10.98 10 -12 10 C-10.7749716 6.3249148 -9.90838352 6.14523895 -6.5625 4.4375 C-3.93969409 3.08610241 -2.0968741 2.0968741 0 0 Z " fill="#456549" transform="translate(202,42)"/>
<path d="M0 0 C0.66 0 1.32 0 2 0 C2.33 1.98 2.66 3.96 3 6 C3.66 6 4.32 6 5 6 C5.99 8.31 6.98 10.62 8 13 C7.01 13.495 7.01 13.495 6 14 C3.36968337 11.70860372 2.34441201 9.7516301 1.3125 6.4375 C1.06113281 5.65246094 0.80976563 4.86742187 0.55078125 4.05859375 C0 2 0 2 0 0 Z " fill="#833835" transform="translate(437,393)"/>
<path d="M0 0 C3.82946843 1.45255699 5.12050295 3.42895561 7 7 C4.3333581 8.33332095 2.83319697 7.67102033 0 7 C0 4.69 0 2.38 0 0 Z " fill="#426046" transform="translate(368,239)"/>
<path d="M0 0 C2.475 0.99 2.475 0.99 5 2 C4.38722388 4.96175123 3.74627478 6.38058783 2 9 C-1.13477337 10.10140686 -2.6367575 10.12108083 -5.8125 9.0625 C-6.534375 8.711875 -7.25625 8.36125 -8 8 C-4.61981469 6.95994298 -1.5219721 6.91995518 2 7 C1.42415568 4.61435923 0.77772405 2.33317216 0 0 Z " fill="#38503A" transform="translate(388,103)"/>
<path d="M0 0 C0.99 0.495 0.99 0.495 2 1 C2 2.65 2 4.3 2 6 C3.32 6 4.64 6 6 6 C6 5.34 6 4.68 6 4 C7.65 4 9.3 4 11 4 C11 4.66 11 5.32 11 6 C7.23355012 7.82941851 5.03077875 8.23162684 1 7 C0 6 0 6 -0.0625 2.9375 C-0.041875 1.968125 -0.02125 0.99875 0 0 Z " fill="#384331" transform="translate(369,99)"/>
<path d="M0 0 C4.43601966 3.51822249 5.52033129 7.75390186 7 13 C6.34 13 5.68 13 5 13 C4.34 11.02 3.68 9.04 3 7 C2.34 7 1.68 7 1 7 C0.67 4.69 0.34 2.38 0 0 Z " fill="#415F42" transform="translate(393,151)"/>
<path d="M0 0 C2.49361571 1.20381448 4.68143083 2.45428722 7 4 C8.1875 7.625 8.1875 7.625 9 11 C8.34 11 7.68 11 7 11 C5.78125 9.5390625 5.78125 9.5390625 4.5 7.625 C3.07753774 5.51732726 1.80845027 3.80845027 0 2 C0 1.34 0 0.68 0 0 Z " fill="#803030" transform="translate(249,363)"/>
<path d="M0 0 C1.81248985 3.6249797 2.31888915 5.37259584 2.625 9.25 C2.69976562 10.14203125 2.77453125 11.0340625 2.8515625 11.953125 C2.92503906 12.96632812 2.92503906 12.96632812 3 14 C2.01 14 1.02 14 0 14 C0 9.38 0 4.76 0 0 Z " fill="#677E6A" transform="translate(455,128)"/>
<path d="M0 0 C4.29 0 8.58 0 13 0 C13 0.66 13 1.32 13 2 C9.37 2.33 5.74 2.66 2 3 C1.34 2.01 0.68 1.02 0 0 Z " fill="#976B6B" transform="translate(405,476)"/>
<path d="M0 0 C2.75 0.0625 2.75 0.0625 6 1 C7.95648023 3.24504664 8.79236474 5.19828619 10 8 C9.67 8.99 9.34 9.98 9 11 C8.67 9.68 8.34 8.36 8 7 C7.34 7 6.68 7 6 7 C5.938125 6.38125 5.87625 5.7625 5.8125 5.125 C5.171081 2.72238859 5.171081 2.72238859 2.4375 1.75 C1.633125 1.5025 0.82875 1.255 0 1 C0 0.67 0 0.34 0 0 Z " fill="#892E2C" transform="translate(236,346)"/>
<path d="M0 0 C1.32 0.66 2.64 1.32 4 2 C3.67 3.65 3.34 5.3 3 7 C1.68 7 0.36 7 -1 7 C-0.67 4.69 -0.34 2.38 0 0 Z " fill="#3C5D3F" transform="translate(379,112)"/>
<path d="M0 0 C0.99 0 1.98 0 3 0 C3.33 0.66 3.66 1.32 4 2 C4.99 2.33 5.98 2.66 7 3 C7 3.66 7 4.32 7 5 C1.25 5.125 1.25 5.125 -1 4 C-0.67 2.68 -0.34 1.36 0 0 Z " fill="#628167" transform="translate(292,235)"/>
<path d="M0 0 C2.02045442 0.60183749 4.02111039 1.27306096 6 2 C6.33 2.66 6.66 3.32 7 4 C5.63875 3.87625 5.63875 3.87625 4.25 3.75 C0.89958592 3.68975201 0.89958592 3.68975201 -1.375 6 C-1.91125 6.66 -2.4475 7.32 -3 8 C-2.45276317 4.62537285 -1.9451 2.91765 0 0 Z " fill="#262A1E" transform="translate(128,137)"/>
<path d="M0 0 C0.66 0.33 1.32 0.66 2 1 C0.55922954 4.36179774 -1.24750021 6.59156268 -4 9 C-4.66 9 -5.32 9 -6 9 C-6 9.66 -6 10.32 -6 11 C-6.66 10.67 -7.32 10.34 -8 10 C-7.34 9.01 -6.68 8.02 -6 7 C-5.34 7 -4.68 7 -4 7 C-3.71125 6.401875 -3.4225 5.80375 -3.125 5.1875 C-2 3 -2 3 0 0 Z " fill="#39513A" transform="translate(383,67)"/>
<path d="M0 0 C0.99 0.33 1.98 0.66 3 1 C3.36923077 6.41538462 3.36923077 6.41538462 1.5 9.375 C1.005 9.91125 0.51 10.4475 0 11 C-0.84098656 6.98195309 -1.05404945 3.98196457 0 0 Z " fill="#A07360" transform="translate(462,415)"/>
<path d="M0 0 C2.18994248 3.28491373 2.35277339 4.83095639 2.625 8.6875 C2.69976562 9.68136719 2.77453125 10.67523438 2.8515625 11.69921875 C2.92503906 12.83810547 2.92503906 12.83810547 3 14 C1 13 1 13 0.37890625 11.234375 C-0.02399618 8.85849677 -0.09791478 6.65820483 -0.0625 4.25 C-0.05347656 3.45078125 -0.04445313 2.6515625 -0.03515625 1.828125 C-0.02355469 1.22484375 -0.01195312 0.6215625 0 0 Z " fill="#8FA994" transform="translate(396,306)"/>
<path d="M0 0 C1.21386936 3.64160808 0.6674695 4.33165469 -0.9375 7.6875 C-1.31777344 8.49574219 -1.69804687 9.30398437 -2.08984375 10.13671875 C-2.39019531 10.75160156 -2.69054687 11.36648437 -3 12 C-3.66 11.67 -4.32 11.34 -5 11 C-4.32902328 6.80639551 -2.1441606 3.59665648 0 0 Z " fill="#425E45" transform="translate(353,177)"/>
<path d="M0 0 C0.99 0.33 1.98 0.66 3 1 C3 3.97 3 6.94 3 10 C1.68 9.34 0.36 8.68 -1 8 C-0.67 5.36 -0.34 2.72 0 0 Z " fill="#3E7743" transform="translate(376,110)"/>
<path d="M0 0 C1.65 0 3.3 0 5 0 C5.33 0.99 5.66 1.98 6 3 C5.01 3.99 4.02 4.98 3 6 C2.34 5.67 1.68 5.34 1 5 C0.375 2.4375 0.375 2.4375 0 0 Z " fill="#3B5E3F" transform="translate(392,58)"/>
<path d="M0 0 C0.99 0.33 1.98 0.66 3 1 C3.70381157 2.98723268 4.3711811 4.98777953 5 7 C5.66 7.33 6.32 7.66 7 8 C6.01 8.33 5.02 8.66 4 9 C0 3.375 0 3.375 0 0 Z " fill="#703331" transform="translate(280,452)"/>
<path d="M0 0 C2.64850992 2.64850992 4.33103223 5.66206447 6 9 C5.34 9.66 4.68 10.32 4 11 C2 10 2 10 0.875 7.1875 C0 4 0 4 0 0 Z " fill="#7A3131" transform="translate(411,349)"/>
<path d="M0 0 C4.42857143 5.14285714 4.42857143 5.14285714 5 9 C3.35 8.67 1.7 8.34 0 8 C0 5.36 0 2.72 0 0 Z " fill="#5A705B" transform="translate(399,314)"/>
<path d="M0 0 C2 1 2 1 3 2 C4.51469448 2.23192865 6.03754562 2.41215238 7.5625 2.5625 C8.38878906 2.64628906 9.21507812 2.73007813 10.06640625 2.81640625 C10.70449219 2.87699219 11.34257812 2.93757812 12 3 C12 3.33 12 3.66 12 4 C7.71 4 3.42 4 -1 4 C-0.67 2.68 -0.34 1.36 0 0 Z " fill="#8EA693" transform="translate(323,250)"/>
<path d="M0 0 C1.32 0.66 2.64 1.32 4 2 C4 3.32 4 4.64 4 6 C3.01 6.33 2.02 6.66 1 7 C1 5.35 1 3.7 1 2 C0.34 1.67 -0.32 1.34 -1 1 C-0.67 0.67 -0.34 0.34 0 0 Z " fill="#495E49" transform="translate(451,222)"/>
<path d="M0 0 C0.33 0.66 0.66 1.32 1 2 C0.22265625 3.9453125 0.22265625 3.9453125 -0.9375 6.125 C-1.31777344 6.84945312 -1.69804687 7.57390625 -2.08984375 8.3203125 C-2.39019531 8.87460938 -2.69054687 9.42890625 -3 10 C-3.66 9.67 -4.32 9.34 -5 9 C-3.90931332 5.22454612 -3.0916909 2.52956528 0 0 Z " fill="#627A62" transform="translate(456,145)"/>
<path d="M0 0 C0.8125 1.6875 0.8125 1.6875 1 4 C-1.4375 6.75 -1.4375 6.75 -4 9 C-4 5.28703828 -2.65223411 2.65223411 0 0 Z " fill="#47573F" transform="translate(160,66)"/>
<path d="M0 0 C2.36556709 2.36556709 2.58244041 3.74303521 3 7 C2 8 2 8 -0.5625 8.0625 C-1.366875 8.041875 -2.17125 8.02125 -3 8 C-2.67 7.34 -2.34 6.68 -2 6 C-1.34 6 -0.68 6 0 6 C0 4.02 0 2.04 0 0 Z " fill="#A53032" transform="translate(468,467)"/>
<path d="M0 0 C0.33 0.66 0.66 1.32 1 2 C3.02463255 2.65213292 3.02463255 2.65213292 5 3 C2.04335481 4.4783226 -0.74229737 4.06032783 -4 4 C-4.33 3.34 -4.66 2.68 -5 2 C-3.35 1.34 -1.7 0.68 0 0 Z " fill="#607762" transform="translate(339,248)"/>
<path d="M0 0 C1.98 0 3.96 0 6 0 C6 0.66 6 1.32 6 2 C8.475 2.99 8.475 2.99 11 4 C9 5 9 5 5.5 4.25 C2 3 2 3 0 0 Z " fill="#75927A" transform="translate(370,246)"/>
<path d="M0 0 C0.66 0 1.32 0 2 0 C4.28571429 8.42857143 4.28571429 8.42857143 4 13 C2.42445965 10.11371599 1.53723627 7.46657616 0.875 4.25 C0.70742188 3.45078125 0.53984375 2.6515625 0.3671875 1.828125 C0.24601562 1.22484375 0.12484375 0.6215625 0 0 Z " fill="#4E664F" transform="translate(402,158)"/>
<path d="M0 0 C0.66 0.66 1.32 1.32 2 2 C1.9765625 4.1640625 1.9765625 4.1640625 1.625 6.625 C1.51414062 7.44226563 1.40328125 8.25953125 1.2890625 9.1015625 C1.19367188 9.72804688 1.09828125 10.35453125 1 11 C-1.30903272 7.01647791 -0.86516528 4.49885947 0 0 Z " fill="#476746" transform="translate(363,83)"/>
<path d="M0 0 C2.31 0.33 4.62 0.66 7 1 C7 1.66 7 2.32 7 3 C4.69 3.66 2.38 4.32 0 5 C0 3.35 0 1.7 0 0 Z " fill="#A13033" transform="translate(452,440)"/>
<path d="M0 0 C0.33 1.32 0.66 2.64 1 4 C0.01 4.66 -0.98 5.32 -2 6 C-2.99 4.68 -3.98 3.36 -5 2 C-3.35 1.34 -1.7 0.68 0 0 Z " fill="#7D3837" transform="translate(462,434)"/>
<path d="M0 0 C0.99 0.33 1.98 0.66 3 1 C3 4.3 3 7.6 3 11 C2.67 11 2.34 11 2 11 C1.34 7.37 0.68 3.74 0 0 Z " fill="#5A855A" transform="translate(396,303)"/>
<path d="M0 0 C0.66 0 1.32 0 2 0 C2.33 2.97 2.66 5.94 3 9 C2.67 8.34 2.34 7.68 2 7 C1.34 7 0.68 7 0 7 C0 4.69 0 2.38 0 0 Z " fill="#4D6051" transform="translate(395,293)"/>
<path d="M0 0 C1.32 0 2.64 0 4 0 C4.66 2.64 5.32 5.28 6 8 C5.34 8 4.68 8 4 8 C3.71125 7.195625 3.4225 6.39125 3.125 5.5625 C2.26737432 2.8673532 2.26737432 2.8673532 0 2 C0 1.34 0 0.68 0 0 Z " fill="#456045" transform="translate(396,148)"/>
<path d="M0 0 C2.3431213 0.25561323 4.67843403 0.59270772 7 1 C7.33 1.66 7.66 2.32 8 3 C6.02 3.33 4.04 3.66 2 4 C1.34 2.68 0.68 1.36 0 0 Z " fill="#3A583D" transform="translate(310,42)"/>
<path d="M0 0 C1.5625 1.1875 1.5625 1.1875 3 3 C2.6875 5.6875 2.6875 5.6875 2 8 C1.34 8 0.68 8 0 8 C0 5.36 0 2.72 0 0 Z " fill="#80947F" transform="translate(321,243)"/>
<path d="M0 0 C0.66 0.33 1.32 0.66 2 1 C2 2.65 2 4.3 2 6 C-0.475 5.01 -0.475 5.01 -3 4 C-2.01 2.68 -1.02 1.36 0 0 Z " fill="#436645" transform="translate(132,133)"/>
<path d="M0 0 C-1 2 -1 2 -3.375 3.125 C-6 4 -6 4 -9 4 C-8.67 3.01 -8.34 2.02 -8 1 C-5.07175348 0.02391783 -3.04386724 -0.08226668 0 0 Z " fill="#47724C" transform="translate(400,96)"/>
<path d="M0 0 C0.33 0 0.66 0 1 0 C1 1.98 1 3.96 1 6 C-0.98 6.33 -2.96 6.66 -5 7 C-4.54625 6.5875 -4.0925 6.175 -3.625 5.75 C-1.94049626 3.93591905 -1.00734029 2.24714373 0 0 Z " fill="#446A4A" transform="translate(408,94)"/>
<path d="M0 0 C1.60379341 -0.05416188 3.20811406 -0.09286638 4.8125 -0.125 C5.70582031 -0.14820313 6.59914062 -0.17140625 7.51953125 -0.1953125 C10 0 10 0 13 2 C11.0625 2.5625 11.0625 2.5625 9 3 C8.67 2.67 8.34 2.34 8 2 C6.65252916 1.76924918 5.29622435 1.58846937 3.9375 1.4375 C2.638125 1.293125 1.33875 1.14875 0 1 C0 0.67 0 0.34 0 0 Z " fill="#7D3231" transform="translate(208,342)"/>
<path d="M0 0 C0.99 0 1.98 0 3 0 C2.67 1.65 2.34 3.3 2 5 C1.01 5.33 0.02 5.66 -1 6 C-0.67 4.02 -0.34 2.04 0 0 Z " fill="#576E58" transform="translate(313,218)"/>
<path d="M0 0 C0.99 0.33 1.98 0.66 3 1 C1.68 2.32 0.36 3.64 -1 5 C-1.99 4.34 -2.98 3.68 -4 3 C-2.1875 1.4375 -2.1875 1.4375 0 0 Z " fill="#718874" transform="translate(337,193)"/>
<path d="M0 0 C0.66 0 1.32 0 2 0 C2.33 1.65 2.66 3.3 3 5 C1.68 5 0.36 5 -1 5 C-0.67 3.35 -0.34 1.7 0 0 Z " fill="#7A917B" transform="translate(343,187)"/>
<path d="M0 0 C0.99 0.33 1.98 0.66 3 1 C1.35 2.98 -0.3 4.96 -2 7 C-2.33 5.68 -2.66 4.36 -3 3 C-2.01 2.67 -1.02 2.34 0 2 C0 1.34 0 0.68 0 0 Z " fill="#667D65" transform="translate(449,155)"/>
<path d="M0 0 C1.9375 0.6875 1.9375 0.6875 4 2 C4.875 4.5 4.875 4.5 5 7 C4.34 7.66 3.68 8.32 3 9 C2.690625 7.88625 2.38125 6.7725 2.0625 5.625 C1.17673517 2.2054845 1.17673517 2.2054845 0 0 Z " fill="#3E5F3C" transform="translate(389,135)"/>
</svg>
